<?xml version="1.0" encoding="utf-8"?>
<!-- Generator: Adobe Illustrator 22.1.0, SVG Export Plug-In . SVG Version: 6.00 Build 0)  -->
<svg version="1.1" id="Layer_1" xmlns="http://www.w3.org/2000/svg" xmlns:xlink="http://www.w3.org/1999/xlink" x="0px" y="0px"
	 viewBox="0 0 471 332" style="enable-background:new 0 0 471 332;" xml:space="preserve">
<style type="text/css">
	.st0{opacity:0.5;}
	.st1{fill:#25054D;}
	.st2{opacity:0.5;fill:#25054D;enable-background:new    ;}
	.st3{opacity:0.2;}
	.st4{fill-opacity:0;}
	.st5{opacity:9.090909e-02;enable-background:new    ;}
	.st6{opacity:0.1818;enable-background:new    ;}
	.st7{opacity:0.2727;enable-background:new    ;}
	.st8{opacity:0.3636;enable-background:new    ;}
	.st9{opacity:0.4545;enable-background:new    ;}
	.st10{opacity:0.5455;enable-background:new    ;}
	.st11{opacity:0.6364;enable-background:new    ;}
	.st12{opacity:0.7273;enable-background:new    ;}
	.st13{opacity:0.8182;enable-background:new    ;}
	.st14{opacity:0.9091;enable-background:new    ;}
	.st15{fill:url(#SVGID_1_);}
	.st16{fill:url(#SVGID_2_);}
	.st17{fill:url(#SVGID_3_);}
	.st18{fill:url(#SVGID_4_);}
	.st19{fill:url(#SVGID_5_);}
	.st20{fill:url(#SVGID_6_);}
	.st21{fill:url(#SVGID_7_);}
	.st22{fill:url(#SVGID_8_);}
	.st23{fill:url(#SVGID_9_);}
	.st24{fill:url(#SVGID_10_);}
	.st25{fill:url(#SVGID_11_);}
	.st26{fill:url(#SVGID_12_);}
	.st27{fill:url(#SVGID_13_);}
	.st28{fill:url(#SVGID_14_);}
	.st29{fill:url(#SVGID_15_);}
	.st30{fill:url(#SVGID_16_);}
	.st31{fill:url(#SVGID_17_);}
	.st32{fill:url(#SVGID_18_);}
	.st33{fill:url(#SVGID_19_);}
	.st34{fill:url(#SVGID_20_);}
	.st35{fill:url(#SVGID_21_);}
	.st36{fill:url(#SVGID_22_);}
	.st37{fill:url(#SVGID_23_);}
	.st38{fill:url(#SVGID_24_);}
	.st39{fill:url(#SVGID_25_);}
	.st40{fill:url(#SVGID_26_);}
	.st41{fill:url(#SVGID_27_);}
	.st42{fill:url(#SVGID_28_);}
	.st43{fill:url(#SVGID_29_);}
	.st44{fill:url(#SVGID_30_);}
	.st45{fill:url(#SVGID_31_);}
	.st46{fill:url(#SVGID_32_);}
	.st47{fill:url(#SVGID_33_);}
	.st48{fill:url(#SVGID_34_);}
	.st49{fill:url(#SVGID_35_);}
	.st50{fill:url(#SVGID_36_);}
	.st51{fill:url(#SVGID_37_);}
	.st52{fill:url(#SVGID_38_);}
	.st53{fill:url(#SVGID_39_);}
	.st54{fill:url(#SVGID_40_);}
	.st55{fill:url(#SVGID_41_);}
	.st56{fill:url(#SVGID_42_);}
	.st57{fill:url(#SVGID_43_);}
	.st58{fill:#CBA6E3;}
	.st59{fill:#CCA7E3;}
	.st60{fill:#CCA8E4;}
	.st61{fill:#CDA9E4;}
	.st62{fill:#CDAAE4;}
	.st63{fill:#CEABE4;}
	.st64{fill:#CEACE5;}
	.st65{fill:#CFADE5;}
	.st66{fill:#CFAEE5;}
	.st67{fill:#D0AFE6;}
	.st68{fill:#D1B0E6;}
	.st69{fill:#D1B1E6;}
	.st70{fill:#D2B2E6;}
	.st71{fill:#D2B3E7;}
	.st72{fill:#D3B4E7;}
	.st73{fill:#D3B5E7;}
	.st74{fill:#D4B6E7;}
	.st75{fill:#D5B7E8;}
	.st76{fill:#D5B8E8;}
	.st77{fill:#D6B9E8;}
	.st78{fill:#D6BAE9;}
	.st79{fill:#D7BBE9;}
	.st80{fill:#D7BCE9;}
	.st81{fill:#D8BDE9;}
	.st82{fill:#D8BEEA;}
	.st83{fill:#D9BFEA;}
	.st84{fill:#DAC0EA;}
	.st85{fill:#DAC1EB;}
	.st86{fill:#DBC2EB;}
	.st87{fill:#DCC3EB;}
	.st88{fill:#DCC4EC;}
	.st89{fill:#DDC5EC;}
	.st90{fill:#DEC6EC;}
	.st91{fill:#DEC7ED;}
	.st92{fill:#DFC8ED;}
	.st93{fill:#DFC9ED;}
	.st94{fill:#E0CAED;}
	.st95{fill:#E0CBEE;}
	.st96{fill:#E1CCEE;}
	.st97{fill:#E1CDEE;}
	.st98{fill:#E2CEEF;}
	.st99{fill:#E3CFEF;}
	.st100{fill:#E3D0EF;}
	.st101{fill:#E4D1EF;}
	.st102{fill:#E4D2F0;}
	.st103{fill:#E5D3F0;}
	.st104{fill:#E5D4F0;}
	.st105{fill:#E6D5F0;}
	.st106{fill:#E7D6F1;}
	.st107{fill:#E7D7F1;}
	.st108{fill:#E8D8F1;}
	.st109{fill:#E8D9F2;}
	.st110{fill:#E9DAF2;}
	.st111{fill:#E9DBF2;}
	.st112{fill:#EADCF2;}
	.st113{fill:#EADDF3;}
	.st114{fill:#EBDEF3;}
	.st115{fill:url(#SVGID_44_);}
	.st116{fill:url(#SVGID_45_);}
	.st117{fill:url(#SVGID_46_);}
	.st118{fill:url(#SVGID_47_);}
	.st119{fill:url(#SVGID_48_);}
	.st120{fill:#D1B4E3;}
	.st121{fill:#E5D4EF;}
	.st122{opacity:0.1;}
	.st123{fill:url(#SVGID_49_);}
	.st124{opacity:0.7;}
	.st125{opacity:2.000000e-02;enable-background:new    ;}
	.st126{opacity:4.545455e-02;enable-background:new    ;}
	.st127{opacity:7.090909e-02;enable-background:new    ;}
	.st128{opacity:9.636363e-02;enable-background:new    ;}
	.st129{opacity:0.1218;enable-background:new    ;}
	.st130{opacity:0.1473;enable-background:new    ;}
	.st131{opacity:0.1727;enable-background:new    ;}
	.st132{opacity:0.1982;enable-background:new    ;}
	.st133{opacity:0.2236;enable-background:new    ;}
	.st134{opacity:0.2491;enable-background:new    ;}
	.st135{opacity:0.2745;enable-background:new    ;}
	.st136{opacity:0.3;enable-background:new    ;}
	.st137{fill:url(#SVGID_50_);}
	.st138{fill:url(#SVGID_51_);}
	.st139{fill:url(#SVGID_52_);}
	.st140{fill:#231F20;}
	.st141{opacity:0.5;fill:#EBDEF3;enable-background:new    ;}
	.st142{opacity:0.7;fill:#EBDEF3;enable-background:new    ;}
	.st143{fill:url(#SVGID_53_);}
	.st144{fill:url(#SVGID_54_);}
	.st145{fill:url(#SVGID_55_);}
	.st146{fill:url(#SVGID_56_);}
	.st147{fill:url(#SVGID_57_);}
	.st148{fill:url(#SVGID_58_);}
	.st149{fill:url(#SVGID_59_);}
	.st150{fill:#D0B3E0;}
	.st151{fill:url(#SVGID_60_);}
	.st152{fill:url(#SVGID_61_);}
	.st153{fill:url(#SVGID_62_);}
	.st154{opacity:0.8;fill:#EBDEF3;enable-background:new    ;}
	.st155{fill:#C4B0D1;}
	.st156{fill:url(#SVGID_63_);}
	.st157{opacity:0.2;fill:#C4B0D1;enable-background:new    ;}
	.st158{opacity:0.4;fill:#C4B0D1;enable-background:new    ;}
	.st159{opacity:0.6;fill:#C4B0D1;enable-background:new    ;}
	.st160{opacity:0.8;fill:#C4B0D1;enable-background:new    ;}
	.st161{fill:url(#SVGID_64_);}
	.st162{fill:url(#SVGID_65_);}
	.st163{fill:url(#SVGID_66_);}
	.st164{fill:url(#SVGID_67_);}
	.st165{fill:url(#SVGID_68_);}
	.st166{fill:url(#SVGID_69_);}
	.st167{opacity:0.15;}
	.st168{fill:url(#SVGID_70_);}
	.st169{fill:url(#SVGID_71_);}
</style>
<g>
	<g class="st0">
		<g>
			<polygon class="st1" points="390.7,50.7 357.4,31.5 359.6,30.3 392.8,49.4 			"/>
		</g>
		<path class="st1" d="M368.3,59l4.4,2.5l2.2-1.3l-4.4-2.5L368.3,59z M380.2,69.1l-2.7-1.6l-2.2,1.3l2.7,1.6L380.2,69.1z
			 M382.6,64.7l-5.9-3.4l-2.2,1.3l5.9,3.4L382.6,64.7z M396.1,72.7l-11.7-7l-2.2,1.3l11.7,7L396.1,72.7z M378.3,73.8l-9.5-5.5
			l-2.2,1.3l9.5,5.5L378.3,73.8z M367,67.3l-5.9-3.4l-2.2,1.3l5.9,3.4L367,67.3z M361.3,60.7l12.2,7l2.2-1.3l-12.2-7L361.3,60.7z
			 M370.2,75L358,68l-2.2,1.3l12.2,7L370.2,75z M391.3,75.6l-9.4-5.4l-2.2,1.3l9.4,5.4L391.3,75.6z M384.9,77.7l-4.9-2.8l-2.2,1.3
			l4.9,2.8L384.9,77.7z M368.7,56.7l-4.2-2.5l-2.2,1.3l4.2,2.5L368.7,56.7z M356.2,66.9l-6.8-3.9l-2.2,1.3l6.8,3.9L356.2,66.9z
			 M359.3,62.9l-4.9-2.8l-2.2,1.3l4.9,2.8L359.3,62.9z M361.6,58.4l-2.2-1.3l-2.2,1.3l2.2,1.3L361.6,58.4z"/>
		<path class="st1" d="M429.1,56.8L346.8,9.3c-5.4-3.1-14.2-3.1-19.6,0L194.7,85.8l0.8,0.5L328,9.7c5-2.9,13-2.8,18,0l82.3,47.5
			c5,2.9,5,7.5,0.1,10.4l-133.4,77l0.8,0.5l133.4-77C434.6,65,434.6,59.9,429.1,56.8z"/>
	</g>
	<path class="st2" d="M184,101.9l-6.7-3.9l-5,2.9l11.8,6.8l11.7-6.7l-5.1-2.9L184,101.9z M183.9,94.2l-5.4,3.1l5.4,3.1l5.4-3.1
		L183.9,94.2z M183.9,92.7l13,7.5l5.7-3.3l-18.7-10.8l-18.6,10.7l5.7,3.3L183.9,92.7z M101.5,136.5l232.3,134.1l-88.7-82.9
		L101.5,136.5z M390,238.1L157.8,104l88.7,82.9L390,238.1z M337.2,271.9l55-31.7L248.6,189L337.2,271.9z M155,102.4L155,102.4
		L155,102.4L155,102.4z M154.3,102.8l-55,31.7L243,185.7L154.3,102.8z M98.7,134.9L98.7,134.9L98.7,134.9L98.7,134.9z M193.2,204.9
		L193.2,204.9L193.2,204.9L193.2,204.9z M321.6,279l-126.8-73.2l35.9,52.4L321.6,279z M137.6,237l90.8,20.8l-35.9-52.4L137.6,237z
		 M136.9,237.4L136.9,237.4L136.9,237.4L136.9,237.4z M138.5,238.3l126.8,73.2L229.4,259L138.5,238.3z M267.6,312l54.9-31.7
		l-90.8-20.8L267.6,312z M178,75.7L6,175l260,150.1l172-99.3L178,75.7z M407.2,242.6l-258-148.9l-0.9,0.5l258,148.9l-140.4,81
		L7.7,175L178,76.7l258.3,149.1L407.2,242.6z M79.1,146.7l17.2,9.9l3.6-2.1l-17.2-9.9L79.1,146.7z M169.5,191.1l3.6-2.1l-4.9-2.8
		l-3.6,2.1L169.5,191.1z M110.2,160.4l-7.3-4.2l-3.6,2.1l7.3,4.2L110.2,160.4z M100,151l20.1,11.6l3.6-2.1L103.6,149L100,151z
		 M85.8,142.8l11.3,6.5l3.6-2.1l-11.3-6.5L85.8,142.8z M122.2,171.5l18.4,10.6l3.6-2.1l-18.4-10.6L122.2,171.5z M134.1,166.6
		l-3.6,2.1l15.4,8.9l3.6-2.1L134.1,166.6z M147.2,181.8l-3.6,2.1l4.8,2.8l3.6-2.1L147.2,181.8z M131.2,164.8l-4.5-2.6l-3.6,2.1
		l4.5,2.6L131.2,164.8z M109.6,164.2l9.7,5.6l3.6-2.1l-9.7-5.6L109.6,164.2z M165.2,184.5l-12.6-7.3l-3.6,2.1l12.6,7.3L165.2,184.5z
		 M172.5,192.9l16.3,9.4l3.6-2.1l-16.3-9.4L172.5,192.9z M151.4,188.4l13.2,7.6l3.6-2.1l-13.2-7.6L151.4,188.4z M398.7,216.7
		l-11.5-6.6l-6.9,4l11.5,6.6L398.7,216.7z M362.8,196l-13-7.5l-6.9,4l13,7.5L362.8,196z M384.2,208.4l-18.4-10.6l-6.9,4l18.4,10.6
		L384.2,208.4z M329.9,177.1l-17.2-9.9l-6.9,4l17.2,9.9L329.9,177.1z M414.8,226.1l-13.2-7.6l-6.9,4l13.2,7.6L414.8,226.1z
		 M346.8,186.8l-13.9-8l-6.9,4l13.9,8L346.8,186.8z M80.9,172.7l-3.1-1.8l-2.5,1.4l3.1,1.8L80.9,172.7z M60.7,157.3l4.8,2.8l2.5-1.4
		l-4.8-2.8L60.7,157.3z M66.4,154l7.9,4.5l2.5-1.4l-7.9-4.5L66.4,154z M55,160.6l2.5,1.4l2.5-1.4l-2.5-1.4L55,160.6z M98.3,176.2
		l-12.6-7.3l-2.5,1.4l12.6,7.3L98.3,176.2z M83.7,167.7l-6.6-3.8l-2.5,1.4l6.6,3.8L83.7,167.7z M101,200.3l2.5-1.4l-3.4-2l-2.5,1.4
		L101,200.3z M94.6,167.4l-2.5,1.4l3.1,1.8l2.5-1.4L94.6,167.4z M118.8,201.2l-16-9.2l-2.5,1.4l16,9.2L118.8,201.2z M67.5,161.3
		l5,2.9l2.5-1.4l-5-2.9L67.5,161.3z M59.5,163.2l13.8,8l2.5-1.4l-13.8-8L59.5,163.2z M76.3,159.7l13.8,8l2.5-1.4l-13.8-8L76.3,159.7
		z M126.6,188.8l10.6,6.1l2.5-1.4l-10.6-6.1L126.6,188.8z M58.7,182.5l6.6,3.8l2.5-1.4l-6.6-3.8L58.7,182.5z M89.7,184.4l-8.9-5.2
		l-2.5,1.4l8.9,5.2L89.7,184.4z M69.2,182l3.1,1.8l2.5-1.4l-3.1-1.8L69.2,182z M67.4,187.5l12.6,7.3l2.5-1.4l-12.6-7.3L67.4,187.5z
		 M51.7,178.5l5,2.9l2.5-1.4l-5-2.9L51.7,178.5z M147.6,204.6l-21.5-12.4l-2.5,1.4l21.5,12.4L147.6,204.6z M98.1,195.8l-8.7-5
		l-2.5,1.4l8.7,5L98.1,195.8z M37.9,170.5l11.8,6.8l2.5-1.4l-11.8-6.8L37.9,170.5z M118.6,203.9l15.3,8.9l2.5-1.4l-15.3-8.9
		L118.6,203.9z M130.3,204.1l9.3,5.4l2.5-1.4l-9.3-5.4L130.3,204.1z M131.2,201.7L123,197l-2.5,1.4l8.2,4.7L131.2,201.7z M82.1,196
		l3.3,1.9l2.5-1.4l-3.3-1.9L82.1,196z M139.2,196l11.8,6.8l2.5-1.4l-11.8-6.8L139.2,196z M87.5,199.1l9.1,5.2l2.5-1.4l-9.1-5.2
		L87.5,199.1z M116.3,209.2l11.8,6.8l2.5-1.4l-11.8-6.8L116.3,209.2z M103.1,201.5l11.2,6.4l2.5-1.4l-11.2-6.4L103.1,201.5z
		 M49.3,163.9l5.6,3.2l2.5-1.4l-5.6-3.2L49.3,163.9z M110.3,176.5l-10.6-6.1l-2.5,1.4l10.6,6.1L110.3,176.5z M93.5,180l-10.6-6.1
		l-2.5,1.4l10.6,6.1L93.5,180z M107.4,181.4l-7-4.1l-2.5,1.4l7,4.1L107.4,181.4z M78.8,178.1L68,171.9l-2.5,1.4l10.7,6.2L78.8,178.1
		z M118.5,187.8l-9.1-5.2L107,184l9.1,5.2L118.5,187.8z M43.6,167.2l7.7,4.5l2.5-1.4l-7.7-4.5L43.6,167.2z M66,170.7l-6.6-3.8
		l-2.5,1.4l6.6,3.8L66,170.7z M69.6,179.4l-13.8-8l-2.5,1.4l13.8,8L69.6,179.4z M121,182.7l-8.7-5l-2.5,1.4l8.7,5L121,182.7z
		 M104.2,186.2l-8.7-5l-2.5,1.4l8.7,5L104.2,186.2z M100.8,190.8l-9.1-5.2l-2.5,1.4l9.1,5.2L100.8,190.8z M74.3,184.9l10.6,6.1
		l2.5-1.4l-10.6-6.1L74.3,184.9z M121,195.8l-8.7-5l-2.5,1.4l8.7,5L121,195.8z M110.2,189.6l-4-2.3l-2.5,1.4l4,2.3L110.2,189.6z
		 M118.1,190.4l3.9,2.2l2.5-1.4l-3.9-2.2L118.1,190.4z M120.6,185.3l4,2.3l2.5-1.4l-4-2.3L120.6,185.3z"/>
	<g>
		<g class="st3">
			<path class="st4" d="M252.8,280.7c5.2,0,9.9-1.1,13.7-3.3l190.7-109.8c5-2.9,7.9-7.4,7.9-12.5c0-5.6-3.4-10.7-9.5-14.2
				l-82.3-47.5c-4.7-2.7-10.6-4.2-16.6-4.2c-5.2,0-9.9,1.1-13.7,3.3L152.3,202.3c-5,2.9-7.9,7.4-7.9,12.5c0,5.6,3.4,10.7,9.5,14.2
				l82.3,47.5C240.9,279.2,246.8,280.7,252.8,280.7z"/>
			<path class="st5" d="M343.1,92.8L152.4,202.6c-4.8,2.8-7.5,7.1-7.5,11.9c0,5.3,3.3,10.2,9.1,13.5l78.6,45.4
				c0.1,0.1,4,2.3,4.1,2.3c4.8,2.6,10.9,4,16.7,3.7c4.7,0,10.1-1.6,13.5-3.6l189.7-109.2c4.8-2.8,7.5-7.1,7.5-11.9
				c0-5.3-3.3-10.2-9.1-13.5L373.2,94c-1.7-1-4.1-2.1-6.1-2.7c-3.3-1-6.8-1.7-10.4-1.7C351.6,89.6,346.8,90.7,343.1,92.8z"/>
			<path class="st6" d="M343.3,93.2L152.6,202.9c-4.6,2.7-7.2,6.8-7.1,11.4c0,5,3.2,9.7,8.7,12.8l78.9,45.6c0.3,0.1,3.9,2.2,4.2,2.3
				c5,2.6,11.1,3.7,16.8,3.3c4.3,0,10.2-2.1,13.3-3.9L456,165.8c4.6-2.7,7.2-6.8,7.1-11.4c0-5-3.2-9.7-8.7-12.8l-81.3-46.9
				c-1.5-0.9-4.2-2.1-6-2.7c-3.2-1.1-6.7-1.8-10.3-1.8C351.7,90,347,91,343.3,93.2z"/>
			<path class="st7" d="M343.4,93.5L152.7,203.3c-4.4,2.5-6.8,6.5-6.8,10.8c0.1,4.7,3.1,9.1,8.4,12.2l79.3,45.8
				c0.4,0.2,3.8,2.1,4.2,2.2c5.1,2.5,11.3,3.5,16.9,2.8c3.8,0,10.4-2.6,13.1-4.2l187.6-108c4.4-2.5,6.8-6.5,6.8-10.8
				c-0.1-4.7-3.1-9.1-8.4-12.2L373,95.3c-1.4-0.8-4.4-2.2-5.9-2.8c-3.2-1.1-6.7-1.8-10.2-2C351.8,90.4,347.1,91.4,343.4,93.5z"/>
			<path class="st8" d="M343.6,93.8L152.9,203.6c-4.2,2.4-6.5,6.1-6.4,10.2c0.1,4.4,3,8.6,8,11.5l79.7,46c0.5,0.3,3.7,2,4.2,2.2
				c5.2,2.4,11.6,3.3,17,2.3c3.3,0,10.5-3.1,12.9-4.5L454.8,164c4.2-2.4,6.5-6.1,6.4-10.2c-0.1-4.4-3-8.6-8-11.5L373,95.9
				c-1.2-0.7-4.5-2.3-5.9-2.8C364,92,360.5,91.2,357,91C352,90.8,347.2,91.7,343.6,93.8z"/>
			<path class="st9" d="M343.7,94.1L153,203.9c-4,2.3-6.1,5.8-6,9.6c0.1,4.1,2.8,8,7.6,10.8l80,46.2c0.6,0.4,3.5,1.9,4.3,2.2
				c5.3,2.3,11.8,3,17.2,1.8c2.8,0,10.7-3.6,12.7-4.8L454.3,163c4-2.3,6.1-5.8,6-9.6c-0.1-4.1-2.8-8-7.6-10.8l-79.8-46.1
				c-1-0.6-4.6-2.4-5.8-2.9c-3.1-1.1-6.5-2-10-2.2C352.1,91.2,347.3,92.1,343.7,94.1z"/>
			<path class="st10" d="M343.9,94.5L153.2,204.2c-3.8,2.2-5.8,5.5-5.7,9.1c0.1,3.8,2.7,7.5,7.3,10.1l80.4,46.4
				c0.8,0.4,3.4,1.9,4.3,2.1c5.5,2.3,12.1,2.8,17.3,1.4c2.4,0,10.8-4.2,12.5-5.1l184.4-106.1c3.8-2.2,5.8-5.5,5.7-9.1
				c-0.1-3.8-2.7-7.5-7.3-10.1l-79.3-45.8c-0.9-0.5-4.8-2.5-5.7-2.9c-3.1-1.2-6.4-2.1-9.9-2.3C352.2,91.6,347.4,92.4,343.9,94.5z"/>
			<path class="st11" d="M344,94.8L153.3,204.6c-3.6,2.1-5.5,5.2-5.3,8.5c0.2,3.5,2.6,6.9,6.9,9.4l80.8,46.6
				c0.9,0.5,3.3,1.8,4.4,2.1c5.6,2.2,12.3,2.5,17.4,0.9c1.9,0,11-4.7,12.3-5.4l183.3-105.5c3.6-2.1,5.5-5.2,5.3-8.5
				c-0.2-3.5-2.6-6.9-6.9-9.4l-78.8-45.5c-0.7-0.4-4.9-2.7-5.7-3c-3-1.2-6.4-2.2-9.8-2.5C352.3,91.9,347.5,92.8,344,94.8z"/>
			<path class="st12" d="M344.2,95.1L153.5,204.9c-3.4,2-5.1,4.8-4.9,7.9c0.2,3.2,2.5,6.4,6.5,8.8l81.1,46.9c1,0.6,3.2,1.7,4.4,2.1
				c5.7,2.1,12.5,2.3,17.5,0.4c1.4,0,11.1-5.2,12.1-5.7l182.3-104.9c3.4-2,5.1-4.8,4.9-7.9c-0.2-3.2-2.5-6.4-6.5-8.8l-78.3-45.2
				c-0.5-0.3-5-2.8-5.6-3c-3-1.2-6.3-2.3-9.7-2.6C352.5,92.3,347.7,93.1,344.2,95.1z"/>
			<path class="st13" d="M344.4,95.5L153.6,205.2c-3.2,1.9-4.8,4.5-4.6,7.3c0.2,2.9,2.3,5.9,6.2,8.1l81.5,47.1
				c1.1,0.7,3.1,1.6,4.5,2c5.8,2,12.8,2.1,17.6-0.1c0.9,0,11.3-5.7,12-6L452,159.3c3.2-1.9,4.8-4.5,4.6-7.3
				c-0.2-2.9-2.3-5.9-6.2-8.1L372.6,99c-0.3-0.2-5.2-2.9-5.5-3c-3-1.2-6.2-2.4-9.6-2.7C352.6,92.7,347.8,93.5,344.4,95.5z"/>
			<path class="st14" d="M344.5,95.8L153.8,205.6c-3,1.7-4.4,4.2-4.2,6.8s2.2,5.3,5.8,7.4l81.9,47.3c1.3,0.7,3,1.5,4.5,2
				c6,2,13,1.8,17.7-0.5c0.5,0,11.4-6.2,11.8-6.4l180.2-103.7c3-1.7,4.4-4.2,4.2-6.8c-0.2-2.6-2.2-5.3-5.8-7.4l-77.3-44.7
				c-0.2-0.1-5.3-3-5.5-3.1c-2.9-1.2-6.1-2.5-9.5-2.8C352.7,93.1,347.9,93.8,344.5,95.8z"/>
			<path d="M260.1,267.2l190.7-109.8c5.7-3.3,5-9.1-1.6-12.9L367,97c-6.6-3.8-16.6-4.2-22.3-0.9L154,205.9c-5.7,3.3-5,9.1,1.6,12.9
				l82.3,47.5C244.4,270.1,254.4,270.5,260.1,267.2z"/>
		</g>
		<g>
			
				<linearGradient id="SVGID_1_" gradientUnits="userSpaceOnUse" x1="303.2" y1="146.0049" x2="303.2" y2="108.2676" gradientTransform="matrix(1 0 0 -1 0 334)">
				<stop  offset="3.535350e-02" style="stop-color:#6B24D6"/>
				<stop  offset="0.316" style="stop-color:#7A1CD0"/>
				<stop  offset="0.8574" style="stop-color:#A306C1"/>
				<stop  offset="0.9848" style="stop-color:#AD00BD"/>
			</linearGradient>
			<path class="st15" d="M233.1,248.6l-76.9-44.4c-3.9-2.2-5.8-5.2-5.9-8.4c0-0.3,0-2.7,0-2.9c0.3-3.6,3.1-1.6,8.3-4.6L339.5,83.9
				c10-5.8,25.2-6.4,33.8-1.4l76.9,44.4c3.9,2.2,5.8-1.7,5.9,1.4c0,0.3,0,3.8,0,4.1c-0.3,3.6-3.1,7.4-8.3,10.4L267,247.2
				C257,253,241.8,253.6,233.1,248.6z"/>
			
				<linearGradient id="SVGID_2_" gradientUnits="userSpaceOnUse" x1="301.8901" y1="150.7493" x2="298.8907" y2="104.693" gradientTransform="matrix(1 0 0 -1 0 334)">
				<stop  offset="3.535350e-02" style="stop-color:#6B24D6"/>
				<stop  offset="0.316" style="stop-color:#7A1CD0"/>
				<stop  offset="0.8574" style="stop-color:#A306C1"/>
				<stop  offset="0.9848" style="stop-color:#AD00BD"/>
			</linearGradient>
			<path class="st16" d="M339.5,83.6c10-5.8,25.2-6.4,33.8-1.4l76.9,44.4c3.8,2.2,5.6-1.5,5.8,1.6c0,0.3,0,3.8,0,4.1
				c-0.3,3.6-3.1,7.4-8.3,10.4L267,247.1c-10,5.8-25.2,6.4-33.8,1.4l-76.9-44.4c-3.9-2.2-5.8-5.2-5.9-8.4c0-0.3,0-2.6,0.1-2.9
				c0.4-3.6,3.1-1.8,8.2-4.7L339.5,83.6z"/>
			
				<linearGradient id="SVGID_3_" gradientUnits="userSpaceOnUse" x1="301.2602" y1="156.0031" x2="294.1283" y2="101.4799" gradientTransform="matrix(1 0 0 -1 0 334)">
				<stop  offset="3.535350e-02" style="stop-color:#6B24D6"/>
				<stop  offset="0.316" style="stop-color:#7A1CD0"/>
				<stop  offset="0.8574" style="stop-color:#A306C1"/>
				<stop  offset="0.9848" style="stop-color:#AD00BD"/>
			</linearGradient>
			<path class="st17" d="M339.5,83.3c10-5.8,25.2-6.4,33.8-1.4l76.9,44.4c3.7,2.2,5.4-1.2,5.8,1.8c0,0.4,0.1,3.7,0.1,4.1
				c-0.3,3.6-3.1,7.4-8.3,10.4L267,246.9c-10,5.8-25.2,6.4-33.8,1.4l-76.9-44.4c-3.9-2.3-5.9-5.3-5.9-8.4c0-0.3,0-2.6,0.1-2.9
				c0.5-3.5,3.2-2,8.2-4.9L339.5,83.3z"/>
			
				<linearGradient id="SVGID_4_" gradientUnits="userSpaceOnUse" x1="301.2738" y1="161.6747" x2="288.8335" y2="98.7222" gradientTransform="matrix(1 0 0 -1 0 334)">
				<stop  offset="3.535350e-02" style="stop-color:#6B24D6"/>
				<stop  offset="0.316" style="stop-color:#7A1CD0"/>
				<stop  offset="0.8574" style="stop-color:#A306C1"/>
				<stop  offset="0.9848" style="stop-color:#AD00BD"/>
			</linearGradient>
			<path class="st18" d="M339.5,83c10-5.8,25.2-6.4,33.8-1.4l76.9,44.4c3.7,2.1,5.3-1,5.7,1.9c0.1,0.4,0.1,3.7,0.1,4.1
				c-0.3,3.6-3.1,7.4-8.3,10.4L267,246.8c-10,5.8-25.2,6.4-33.8,1.4l-76.9-44.4c-3.9-2.3-5.9-5.3-5.9-8.4c0-0.4,0.1-2.6,0.1-3
				c0.6-3.5,3.2-2.2,8.1-5L339.5,83z"/>
			
				<linearGradient id="SVGID_5_" gradientUnits="userSpaceOnUse" x1="302.2037" y1="167.6023" x2="283.2669" y2="96.4554" gradientTransform="matrix(1 0 0 -1 0 334)">
				<stop  offset="3.535350e-02" style="stop-color:#6B24D6"/>
				<stop  offset="0.316" style="stop-color:#7A1CD0"/>
				<stop  offset="0.8574" style="stop-color:#A306C1"/>
				<stop  offset="0.9848" style="stop-color:#AD00BD"/>
			</linearGradient>
			<path class="st19" d="M339.5,82.7c10-5.8,25.2-6.4,33.8-1.4l76.9,44.4c3.6,2.1,5.2-0.8,5.7,2.1c0.1,0.5,0.2,3.6,0.1,4.1
				c-0.3,3.6-3.1,7.4-8.3,10.4L267,246.7c-10,5.8-25.2,6.4-33.8,1.4l-76.9-44.4c-3.9-2.3-5.9-5.3-5.9-8.5c0-0.4,0.1-2.5,0.2-3
				c0.7-3.4,3.2-2.3,8.1-5.2L339.5,82.7z"/>
			
				<linearGradient id="SVGID_6_" gradientUnits="userSpaceOnUse" x1="303.9714" y1="173.6644" x2="277.371" y2="94.7627" gradientTransform="matrix(1 0 0 -1 0 334)">
				<stop  offset="3.535350e-02" style="stop-color:#6B24D6"/>
				<stop  offset="0.316" style="stop-color:#7A1CD0"/>
				<stop  offset="0.8574" style="stop-color:#A306C1"/>
				<stop  offset="0.9848" style="stop-color:#AD00BD"/>
			</linearGradient>
			<path class="st20" d="M339.5,82.3c10-5.8,25.2-6.4,33.8-1.4l76.9,44.4c3.5,2,5.1-0.5,5.7,2.3c0.1,0.5,0.2,3.5,0.2,4.1
				c-0.3,3.7-3.1,7.4-8.3,10.4L267,246.5c-10,5.8-25.2,6.4-33.8,1.4l-76.9-44.4c-3.9-2.3-5.9-5.3-5.9-8.5c0-0.4,0.1-2.5,0.2-3
				c0.7-3.4,3.2-2.5,8.1-5.3L339.5,82.3z"/>
			
				<linearGradient id="SVGID_7_" gradientUnits="userSpaceOnUse" x1="306.5447" y1="179.7355" x2="271.169" y2="93.7236" gradientTransform="matrix(1 0 0 -1 0 334)">
				<stop  offset="3.535350e-02" style="stop-color:#6B24D6"/>
				<stop  offset="0.316" style="stop-color:#7A1CD0"/>
				<stop  offset="0.8574" style="stop-color:#A306C1"/>
				<stop  offset="0.9848" style="stop-color:#AD00BD"/>
			</linearGradient>
			<path class="st21" d="M339.5,82c10-5.8,25.2-6.4,33.8-1.4l76.9,44.4c3.5,2,5-0.3,5.6,2.4c0.1,0.6,0.3,3.5,0.2,4.1
				c-0.3,3.7-3.1,7.4-8.3,10.4L267,246.4c-10,5.8-25.2,6.4-33.8,1.4l-76.9-44.4c-4-2.3-5.9-5.3-5.9-8.5c0-0.5,0.1-2.5,0.2-3
				c0.8-3.3,3.3-2.7,8-5.4L339.5,82z"/>
			
				<linearGradient id="SVGID_8_" gradientUnits="userSpaceOnUse" x1="310.1217" y1="185.5764" x2="264.9492" y2="93.2982" gradientTransform="matrix(1 0 0 -1 0 334)">
				<stop  offset="3.535350e-02" style="stop-color:#6B24D6"/>
				<stop  offset="0.316" style="stop-color:#7A1CD0"/>
				<stop  offset="0.8574" style="stop-color:#A306C1"/>
				<stop  offset="0.9848" style="stop-color:#AD00BD"/>
			</linearGradient>
			<path class="st22" d="M339.5,81.7c10-5.8,25.2-6.4,33.8-1.4l76.9,44.4c3.4,2,4.9,0,5.6,2.6c0.1,0.6,0.3,3.4,0.3,4.1
				c-0.3,3.7-3.1,7.5-8.3,10.4L267,246.2c-10,5.8-25.2,6.4-33.8,1.4l-76.9-44.4c-4-2.3-5.9-5.4-5.8-8.6c0-0.5,0.1-2.4,0.3-3
				c0.8-3.3,3.3-2.9,8-5.6L339.5,81.7z"/>
			
				<linearGradient id="SVGID_9_" gradientUnits="userSpaceOnUse" x1="314.6578" y1="191.5807" x2="258.5782" y2="93.6962" gradientTransform="matrix(1 0 0 -1 0 334)">
				<stop  offset="3.535350e-02" style="stop-color:#6B24D6"/>
				<stop  offset="0.316" style="stop-color:#7A1CD0"/>
				<stop  offset="0.8574" style="stop-color:#A306C1"/>
				<stop  offset="0.9848" style="stop-color:#AD00BD"/>
			</linearGradient>
			<path class="st23" d="M339.5,81.4c10-5.8,25.2-6.4,33.8-1.4l76.9,44.4c3.3,1.9,4.9,0.2,5.5,2.8c0.2,0.7,0.3,3.4,0.3,4.1
				c-0.3,3.7-3.1,7.5-8.3,10.5L267,246.1c-10,5.8-25.2,6.4-33.8,1.4l-76.9-44.4c-4-2.3-5.9-5.4-5.8-8.6c0-0.6,0.2-2.4,0.3-3
				c0.8-3.2,3.3-3,8-5.7L339.5,81.4z"/>
			
				<linearGradient id="SVGID_10_" gradientUnits="userSpaceOnUse" x1="320.745" y1="198.1894" x2="249.669" y2="90.9487" gradientTransform="matrix(1 0 0 -1 0 334)">
				<stop  offset="3.535350e-02" style="stop-color:#6B24D6"/>
				<stop  offset="0.316" style="stop-color:#7A1CD0"/>
				<stop  offset="0.8574" style="stop-color:#A306C1"/>
				<stop  offset="0.9848" style="stop-color:#AD00BD"/>
			</linearGradient>
			<path class="st24" d="M339.5,81.1c10-5.8,25.2-6.4,33.8-1.4l76.9,44.4c3.3,1.9,4.8,0.4,5.5,2.9c0.2,0.7,0.4,3.3,0.3,4.1
				c-0.3,3.7-3.1,7.5-8.3,10.5L267,246c-10,5.8-25.2,6.4-33.8,1.4l-77-44.4c-4-2.3-6-5.4-5.8-8.6c0-0.6,0.2-2.4,0.3-3
				c0.9-3.2,3.4-3.2,7.9-5.9L339.5,81.1z"/>
			
				<linearGradient id="SVGID_11_" gradientUnits="userSpaceOnUse" x1="328.1219" y1="204.405" x2="240.2271" y2="88.8651" gradientTransform="matrix(1 0 0 -1 0 334)">
				<stop  offset="3.535350e-02" style="stop-color:#6B24D6"/>
				<stop  offset="0.316" style="stop-color:#7A1CD0"/>
				<stop  offset="0.8574" style="stop-color:#A306C1"/>
				<stop  offset="0.9848" style="stop-color:#AD00BD"/>
			</linearGradient>
			<path class="st25" d="M339.5,80.8c10-5.8,25.2-6.4,33.8-1.4l76.9,44.4c3.2,1.8,4.7,0.6,5.5,3.1c0.2,0.8,0.4,3.3,0.4,4
				c-0.2,3.7-3.1,7.5-8.3,10.5L267,245.8c-10,5.8-25.2,6.4-33.8,1.4l-76.9-44.4c-4-2.3-6-5.4-5.8-8.7c0-0.6,0.2-2.3,0.4-3
				c0.9-3.1,3.4-3.4,7.9-6L339.5,80.8z"/>
			
				<linearGradient id="SVGID_12_" gradientUnits="userSpaceOnUse" x1="336.6342" y1="210.2206" x2="230.3383" y2="87.8872" gradientTransform="matrix(1 0 0 -1 0 334)">
				<stop  offset="3.535350e-02" style="stop-color:#6B24D6"/>
				<stop  offset="0.316" style="stop-color:#7A1CD0"/>
				<stop  offset="0.8574" style="stop-color:#A306C1"/>
				<stop  offset="0.9848" style="stop-color:#AD00BD"/>
			</linearGradient>
			<path class="st26" d="M339.5,80.5c10-5.8,25.2-6.4,33.8-1.4l76.9,44.4c3.1,1.8,4.7,0.9,5.4,3.3c0.3,0.8,0.5,3.2,0.4,4
				c-0.2,3.7-3.1,7.5-8.3,10.5L267,245.7c-10,5.8-25.2,6.4-33.8,1.4l-76.9-44.4c-4-2.3-6-5.4-5.8-8.7c0-0.7,0.2-2.3,0.4-3
				c0.9-3.1,3.4-3.6,7.9-6.1L339.5,80.5z"/>
			
				<linearGradient id="SVGID_13_" gradientUnits="userSpaceOnUse" x1="346.3123" y1="215.3342" x2="220.2483" y2="88.0039" gradientTransform="matrix(1 0 0 -1 0 334)">
				<stop  offset="3.535350e-02" style="stop-color:#6B24D6"/>
				<stop  offset="0.316" style="stop-color:#7A1CD0"/>
				<stop  offset="0.8574" style="stop-color:#A306C1"/>
				<stop  offset="0.9848" style="stop-color:#AD00BD"/>
			</linearGradient>
			<path class="st27" d="M339.5,80.1c10-5.8,25.2-6.4,33.8-1.4l76.9,44.4c3,1.8,4.6,1.1,5.4,3.4c0.3,0.9,0.5,3.1,0.5,4
				c-0.2,3.7-3,7.5-8.3,10.5L267,245.5c-10,5.8-25.2,6.4-33.8,1.4l-76.9-44.4c-4-2.3-6-5.5-5.8-8.7c0-0.7,0.2-2.3,0.4-3
				c1-3,3.4-3.7,7.8-6.3L339.5,80.1z"/>
			
				<linearGradient id="SVGID_14_" gradientUnits="userSpaceOnUse" x1="357.0114" y1="219.5601" x2="210.0763" y2="89.2874" gradientTransform="matrix(1 0 0 -1 0 334)">
				<stop  offset="3.535350e-02" style="stop-color:#6B24D6"/>
				<stop  offset="0.316" style="stop-color:#7A1CD0"/>
				<stop  offset="0.8574" style="stop-color:#A306C1"/>
				<stop  offset="0.9848" style="stop-color:#AD00BD"/>
			</linearGradient>
			<path class="st28" d="M339.5,79.8c10-5.8,25.2-6.4,33.8-1.4l76.9,44.4c3,1.7,4.5,1.3,5.3,3.6c0.3,0.9,0.6,3.1,0.5,4
				c-0.2,3.7-3,7.5-8.3,10.5L267,245.4c-10,5.8-25.2,6.4-33.8,1.4l-76.9-44.4c-4-2.3-6-5.5-5.8-8.8c0-0.7,0.2-2.2,0.5-3
				c1-3,3.5-3.9,7.8-6.4L339.5,79.8z"/>
			
				<linearGradient id="SVGID_15_" gradientUnits="userSpaceOnUse" x1="368.5867" y1="222.7034" x2="199.9838" y2="91.761" gradientTransform="matrix(1 0 0 -1 0 334)">
				<stop  offset="3.535350e-02" style="stop-color:#6B24D6"/>
				<stop  offset="0.316" style="stop-color:#7A1CD0"/>
				<stop  offset="0.8574" style="stop-color:#A306C1"/>
				<stop  offset="0.9848" style="stop-color:#AD00BD"/>
			</linearGradient>
			<path class="st29" d="M339.5,79.5c10-5.8,25.2-6.4,33.8-1.4l76.9,44.4c2.9,1.7,4.5,1.6,5.3,3.8c0.4,1,0.6,3,0.5,4
				c-0.2,3.7-3,7.5-8.3,10.5L267,245.2c-10,5.8-25.2,6.4-33.8,1.4l-76.9-44.4c-4.1-2.3-6-5.5-5.8-8.8c0-0.8,0.2-2.2,0.5-3
				c1-3,3.5-4.1,7.8-6.5L339.5,79.5z"/>
			
				<linearGradient id="SVGID_16_" gradientUnits="userSpaceOnUse" x1="380.8898" y1="224.5507" x2="190.165" y2="95.3819" gradientTransform="matrix(1 0 0 -1 0 334)">
				<stop  offset="3.535350e-02" style="stop-color:#6B24D6"/>
				<stop  offset="0.316" style="stop-color:#7A1CD0"/>
				<stop  offset="0.8574" style="stop-color:#A306C1"/>
				<stop  offset="0.9848" style="stop-color:#AD00BD"/>
			</linearGradient>
			<path class="st30" d="M339.5,79.2c10-5.8,25.2-6.4,33.8-1.4l76.9,44.4c2.8,1.6,4.4,1.8,5.3,3.9c0.4,1,0.7,3,0.6,4
				c-0.2,3.7-3,7.5-8.3,10.5L267,245.1c-10,5.8-25.2,6.4-33.8,1.4l-76.9-44.4c-4.1-2.3-6-5.5-5.8-8.8c0-0.8,0.3-2.2,0.6-3
				c1-2.9,3.5-4.3,7.7-6.7L339.5,79.2z"/>
			
				<linearGradient id="SVGID_17_" gradientUnits="userSpaceOnUse" x1="393.6177" y1="225.1073" x2="180.688" y2="100.2731" gradientTransform="matrix(1 0 0 -1 0 334)">
				<stop  offset="3.535350e-02" style="stop-color:#6B24D6"/>
				<stop  offset="0.316" style="stop-color:#7A1CD0"/>
				<stop  offset="0.8574" style="stop-color:#A306C1"/>
				<stop  offset="0.9848" style="stop-color:#AD00BD"/>
			</linearGradient>
			<path class="st31" d="M339.5,78.9c10-5.8,25.2-6.4,33.8-1.4l76.9,44.4c2.8,1.6,4.4,2,5.2,4.1c0.4,1.1,0.7,2.9,0.6,4
				c-0.2,3.7-3,7.5-8.3,10.5L267,245c-10,5.8-25.2,6.4-33.8,1.4l-77-44.4c-4.1-2.4-6-5.5-5.8-8.9c0-0.8,0.3-2.2,0.6-3
				c1.1-2.9,3.6-4.4,7.7-6.8L339.5,78.9z"/>
			
				<linearGradient id="SVGID_18_" gradientUnits="userSpaceOnUse" x1="406.6104" y1="224.1847" x2="171.7834" y2="106.3066" gradientTransform="matrix(1 0 0 -1 0 334)">
				<stop  offset="3.535350e-02" style="stop-color:#6B24D6"/>
				<stop  offset="0.316" style="stop-color:#7A1CD0"/>
				<stop  offset="0.8574" style="stop-color:#A306C1"/>
				<stop  offset="0.9848" style="stop-color:#AD00BD"/>
			</linearGradient>
			<path class="st32" d="M339.5,78.6c10-5.8,25.2-6.4,33.8-1.4l76.9,44.4c2.7,1.6,4.3,2.2,5.2,4.3c0.5,1.1,0.7,2.9,0.7,4
				c-0.2,3.7-3,7.5-8.3,10.6L267,244.8c-10,5.8-25.2,6.4-33.8,1.4l-76.9-44.4c-4.1-2.4-6-5.6-5.8-8.9c0-0.9,0.3-2.1,0.6-3
				c1.1-2.8,3.6-4.6,7.7-7L339.5,78.6z"/>
			
				<linearGradient id="SVGID_19_" gradientUnits="userSpaceOnUse" x1="419.6222" y1="221.7282" x2="163.6059" y2="113.4272" gradientTransform="matrix(1 0 0 -1 0 334)">
				<stop  offset="3.535350e-02" style="stop-color:#6B24D6"/>
				<stop  offset="0.316" style="stop-color:#7A1CD0"/>
				<stop  offset="0.8574" style="stop-color:#A306C1"/>
				<stop  offset="0.9848" style="stop-color:#AD00BD"/>
			</linearGradient>
			<path class="st33" d="M339.5,78.3c10-5.8,25.2-6.4,33.8-1.4l76.9,44.4c2.6,1.5,4.3,2.4,5.1,4.4c0.5,1.2,0.8,2.8,0.7,4
				c-0.2,3.7-3,7.5-8.3,10.6L267,244.7c-10,5.8-25.2,6.4-33.8,1.4l-76.9-44.4c-4.1-2.4-6-5.6-5.8-8.9c0.1-0.9,0.3-2.1,0.7-3
				c1.1-2.8,3.6-4.8,7.6-7.1L339.5,78.3z"/>
			
				<linearGradient id="SVGID_20_" gradientUnits="userSpaceOnUse" x1="432.3835" y1="217.7775" x2="156.2855" y2="121.6119" gradientTransform="matrix(1 0 0 -1 0 334)">
				<stop  offset="3.535350e-02" style="stop-color:#6B24D6"/>
				<stop  offset="0.316" style="stop-color:#7A1CD0"/>
				<stop  offset="0.8574" style="stop-color:#A306C1"/>
				<stop  offset="0.9848" style="stop-color:#AD00BD"/>
			</linearGradient>
			<path class="st34" d="M339.5,77.9c10-5.8,25.2-6.4,33.8-1.4l76.9,44.4c2.6,1.5,4.2,2.7,5.1,4.6c0.5,1.2,0.8,2.7,0.8,4
				c-0.2,3.7-3,7.5-8.3,10.6L267,244.5c-10,5.8-25.2,6.4-33.8,1.4l-76.9-44.4c-4.1-2.4-6-5.6-5.8-9c0.1-0.9,0.3-2.1,0.7-3
				c1.1-2.8,3.6-5,7.6-7.2L339.5,77.9z"/>
			
				<linearGradient id="SVGID_21_" gradientUnits="userSpaceOnUse" x1="444.7095" y1="212.1697" x2="150.0282" y2="130.5734" gradientTransform="matrix(1 0 0 -1 0 334)">
				<stop  offset="3.535350e-02" style="stop-color:#6B24D6"/>
				<stop  offset="0.316" style="stop-color:#7A1CD0"/>
				<stop  offset="0.8574" style="stop-color:#A306C1"/>
				<stop  offset="0.9848" style="stop-color:#AD00BD"/>
			</linearGradient>
			<path class="st35" d="M339.5,77.6c10-5.8,25.2-6.4,33.8-1.4l76.9,44.4c2.5,1.4,4.2,2.9,5.1,4.8c0.6,1.2,0.9,2.7,0.8,4
				c-0.2,3.7-3,7.6-8.3,10.6L267,244.4c-10,5.8-25.2,6.4-33.8,1.4l-76.9-44.4c-4.1-2.4-6.1-5.6-5.8-9c0.1-1,0.3-2,0.7-3
				c1.2-2.7,3.7-5.1,7.5-7.4L339.5,77.6z"/>
			
				<linearGradient id="SVGID_22_" gradientUnits="userSpaceOnUse" x1="456.2758" y1="205.0328" x2="144.8927" y2="140.2588" gradientTransform="matrix(1 0 0 -1 0 334)">
				<stop  offset="3.535350e-02" style="stop-color:#6B24D6"/>
				<stop  offset="0.316" style="stop-color:#7A1CD0"/>
				<stop  offset="0.8574" style="stop-color:#A306C1"/>
				<stop  offset="0.9848" style="stop-color:#AD00BD"/>
			</linearGradient>
			<path class="st36" d="M233.1,245.7l-76.9-44.4c-8.7-5-7.6-13.8,2.4-19.5L339.5,77.3c10-5.8,25.2-6.4,33.8-1.4l76.9,44.4
				c8.7,5,7.6,13.8-2.4,19.5L267,244.3C257,250.1,241.8,250.7,233.1,245.7z"/>
		</g>
		<g>
			
				<linearGradient id="SVGID_23_" gradientUnits="userSpaceOnUse" x1="455.0118" y1="202.6974" x2="143.5401" y2="141.9988" gradientTransform="matrix(1 0 0 -1 0 334)">
				<stop  offset="3.535350e-02" style="stop-color:#6B24D6"/>
				<stop  offset="0.316" style="stop-color:#7A1CD0"/>
				<stop  offset="0.8574" style="stop-color:#A306C1"/>
				<stop  offset="0.9848" style="stop-color:#AD00BD"/>
			</linearGradient>
			<path class="st37" d="M233.1,245.8l-76.9-44.4c-3.9-2.2-5.8-5.2-5.9-8.4c0-0.3,0-6.3,0-6.6c0.3-3.6,3.1-1.6,8.3-4.6L339.5,77.4
				c10-5.8,25.2-6.4,33.8-1.4l76.9,44.4c3.9,2.2,5.8-1.7,5.9,1.4c0,0.3,0,7.5,0,7.7c-0.3,3.6-3.1,7.4-8.3,10.4L267,244.4
				C257,250.1,241.8,250.8,233.1,245.8z"/>
			
				<linearGradient id="SVGID_24_" gradientUnits="userSpaceOnUse" x1="454.8766" y1="202.9985" x2="143.5528" y2="142.3287" gradientTransform="matrix(1 0 0 -1 0 334)">
				<stop  offset="3.535350e-02" style="stop-color:#702AD7"/>
				<stop  offset="0.3311" style="stop-color:#7F22D1"/>
				<stop  offset="0.9017" style="stop-color:#A80CC1"/>
				<stop  offset="0.9848" style="stop-color:#AE08BF"/>
			</linearGradient>
			<path class="st38" d="M339.5,77.1c10-5.8,25.2-6.4,33.8-1.4l76.9,44.4c3.8,2.2,5.5-1.5,5.8,1.6c0,0.4,0.1,7.3,0,7.7
				c-0.4,3.6-3.1,7.3-8.2,10.3L267,244c-10,5.8-25.2,6.4-33.8,1.4l-77-44.4c-3.9-2.2-5.7-5.2-5.9-8.3c0-0.4,0-6.2,0.1-6.5
				c0.6-3.5,3.1-1.8,8.2-4.7L339.5,77.1z"/>
			
				<linearGradient id="SVGID_25_" gradientUnits="userSpaceOnUse" x1="454.78" y1="203.2797" x2="143.5646" y2="142.631" gradientTransform="matrix(1 0 0 -1 0 334)">
				<stop  offset="3.535350e-02" style="stop-color:#7430D7"/>
				<stop  offset="0.3393" style="stop-color:#8328D1"/>
				<stop  offset="0.9258" style="stop-color:#AC12C3"/>
				<stop  offset="0.9848" style="stop-color:#B010C1"/>
			</linearGradient>
			<path class="st39" d="M339.5,76.8c10-5.8,25.2-6.4,33.8-1.4l76.9,44.4c3.7,2.1,5.2-1.3,5.7,1.7c0.1,0.5,0.1,7.2,0.1,7.6
				c-0.5,3.6-3.1,7.3-8.2,10.2L267,243.7c-10,5.8-25.2,6.4-33.8,1.4l-76.9-44.4c-3.8-2.2-5.7-5.2-5.8-8.3c0-0.4,0.1-6.1,0.2-6.5
				c0.7-3.4,3.2-1.9,8.1-4.8L339.5,76.8z"/>
			
				<linearGradient id="SVGID_26_" gradientUnits="userSpaceOnUse" x1="454.6976" y1="203.5636" x2="143.5732" y2="142.9327" gradientTransform="matrix(1 0 0 -1 0 334)">
				<stop  offset="3.535350e-02" style="stop-color:#7937D8"/>
				<stop  offset="0.3574" style="stop-color:#882ED2"/>
				<stop  offset="0.9789" style="stop-color:#B118C2"/>
				<stop  offset="0.9848" style="stop-color:#B118C2"/>
			</linearGradient>
			<path class="st40" d="M339.5,76.5c10-5.8,25.2-6.4,33.8-1.4l76.9,44.4c3.6,2.1,5.1-1,5.7,1.8c0.1,0.5,0.2,7,0.1,7.6
				c-0.5,3.5-3.2,7.2-8.2,10.2L267,243.4c-10,5.8-25.2,6.4-33.8,1.4l-76.9-44.4c-3.8-2.2-5.7-5.1-5.8-8.2c0-0.5,0.1-5.9,0.2-6.5
				c0.8-3.4,3.2-2,8.1-4.8L339.5,76.5z"/>
			
				<linearGradient id="SVGID_27_" gradientUnits="userSpaceOnUse" x1="454.6182" y1="203.8481" x2="143.5799" y2="143.2341" gradientTransform="matrix(1 0 0 -1 0 334)">
				<stop  offset="3.535350e-02" style="stop-color:#7D3DD8"/>
				<stop  offset="0.3673" style="stop-color:#8C35D2"/>
				<stop  offset="0.9848" style="stop-color:#B320C4"/>
			</linearGradient>
			<path class="st41" d="M339.5,76.2c10-5.8,25.2-6.4,33.8-1.4l76.9,44.4c3.5,2,5-0.8,5.6,2c0.2,0.6,0.3,6.9,0.2,7.5
				c-0.6,3.5-3.2,7.2-8.2,10.1L267,243.1c-10,5.8-25.2,6.4-33.8,1.4l-76.9-44.4c-3.8-2.2-5.7-5.1-5.8-8.2c0-0.6,0.1-5.8,0.3-6.4
				c0.9-3.3,3.2-2.2,8-4.9L339.5,76.2z"/>
			
				<linearGradient id="SVGID_28_" gradientUnits="userSpaceOnUse" x1="454.5302" y1="204.181" x2="143.5761" y2="143.5833" gradientTransform="matrix(1 0 0 -1 0 334)">
				<stop  offset="3.535350e-02" style="stop-color:#8243D9"/>
				<stop  offset="0.3894" style="stop-color:#913BD3"/>
				<stop  offset="0.9848" style="stop-color:#B428C6"/>
			</linearGradient>
			<path class="st42" d="M339.5,75.8c10-5.8,25.2-6.4,33.8-1.4l76.9,44.4c3.4,2,4.8-0.6,5.5,2.1c0.2,0.7,0.3,6.7,0.2,7.5
				c-0.6,3.5-3.2,7.1-8.2,10L267,242.8c-10,5.8-25.2,6.4-33.8,1.4l-76.9-44.4c-3.8-2.2-5.6-5.1-5.8-8.2c0-0.7,0.1-5.7,0.4-6.4
				c1-3.2,3.2-2.3,7.9-5L339.5,75.8z"/>
			
				<linearGradient id="SVGID_29_" gradientUnits="userSpaceOnUse" x1="454.4528" y1="204.4659" x2="143.5809" y2="143.8842" gradientTransform="matrix(1 0 0 -1 0 334)">
				<stop  offset="3.535350e-02" style="stop-color:#8649DA"/>
				<stop  offset="0.4017" style="stop-color:#9541D4"/>
				<stop  offset="0.9848" style="stop-color:#B62FC8"/>
			</linearGradient>
			<path class="st43" d="M339.5,75.5c10-5.8,25.2-6.4,33.8-1.4l76.9,44.4c3.4,1.9,4.7-0.4,5.5,2.2c0.2,0.8,0.4,6.5,0.3,7.4
				c-0.6,3.5-3.2,7.1-8.2,9.9L267,242.5c-10,5.8-25.2,6.4-33.8,1.4l-76.9-44.4c-3.8-2.2-5.6-5.1-5.8-8.1c-0.1-0.7,0.2-5.6,0.4-6.4
				c1-3.1,3.3-2.4,7.9-5.1L339.5,75.5z"/>
			
				<linearGradient id="SVGID_30_" gradientUnits="userSpaceOnUse" x1="454.377" y1="204.7511" x2="143.585" y2="144.185" gradientTransform="matrix(1 0 0 -1 0 334)">
				<stop  offset="3.535350e-02" style="stop-color:#8B4FDA"/>
				<stop  offset="0.4294" style="stop-color:#9A47D4"/>
				<stop  offset="0.9848" style="stop-color:#B737CA"/>
			</linearGradient>
			<path class="st44" d="M339.5,75.2c10-5.8,25.2-6.4,33.8-1.4l76.9,44.4c3.3,1.9,4.7-0.2,5.4,2.3c0.3,0.9,0.5,6.4,0.3,7.3
				c-0.7,3.4-3.2,7-8.2,9.9L267,242.2c-10,5.8-25.2,6.4-33.8,1.4l-76.9-44.4c-3.8-2.2-5.6-5.1-5.8-8.1c-0.1-0.8,0.2-5.5,0.5-6.3
				c1-3.1,3.3-2.6,7.8-5.1L339.5,75.2z"/>
			
				<linearGradient id="SVGID_31_" gradientUnits="userSpaceOnUse" x1="454.2941" y1="205.0849" x2="143.5792" y2="144.5339" gradientTransform="matrix(1 0 0 -1 0 334)">
				<stop  offset="3.535350e-02" style="stop-color:#9056DB"/>
				<stop  offset="0.462" style="stop-color:#9F4DD5"/>
				<stop  offset="0.9848" style="stop-color:#B83FCB"/>
			</linearGradient>
			<path class="st45" d="M339.5,74.9c10-5.8,25.2-6.4,33.8-1.4l76.9,44.4c3.2,1.8,4.6,0,5.4,2.5c0.3,1,0.6,6.2,0.4,7.3
				c-0.7,3.4-3.3,7-8.2,9.8L267,241.8c-10,5.8-25.2,6.4-33.8,1.4l-76.9-44.4c-3.7-2.2-5.6-5-5.8-8c-0.1-0.9,0.2-5.3,0.5-6.3
				c1.1-3,3.3-2.7,7.7-5.2L339.5,74.9z"/>
			
				<linearGradient id="SVGID_32_" gradientUnits="userSpaceOnUse" x1="454.2236" y1="205.3712" x2="143.5824" y2="144.8345" gradientTransform="matrix(1 0 0 -1 0 334)">
				<stop  offset="3.535350e-02" style="stop-color:#945CDC"/>
				<stop  offset="0.4807" style="stop-color:#A353D6"/>
				<stop  offset="0.9848" style="stop-color:#BA47CD"/>
			</linearGradient>
			<path class="st46" d="M339.5,74.6c10-5.8,25.2-6.4,33.8-1.4l76.9,44.4c3.1,1.8,4.5,0.3,5.3,2.6c0.4,1.1,0.6,6.1,0.4,7.2
				c-0.7,3.4-3.3,6.9-8.1,9.7L267,241.5c-10,5.8-25.2,6.4-33.8,1.4l-76.9-44.4c-3.7-2.2-5.6-5-5.8-8c-0.1-1,0.2-5.2,0.6-6.2
				c1.1-2.9,3.3-2.8,7.7-5.3L339.5,74.6z"/>
			
				<linearGradient id="SVGID_33_" gradientUnits="userSpaceOnUse" x1="454.1568" y1="205.6582" x2="143.5852" y2="145.135" gradientTransform="matrix(1 0 0 -1 0 334)">
				<stop  offset="3.535350e-02" style="stop-color:#9962DC"/>
				<stop  offset="0.5233" style="stop-color:#A859D6"/>
				<stop  offset="0.9848" style="stop-color:#BB4FCF"/>
			</linearGradient>
			<path class="st47" d="M339.5,74.3c10-5.8,25.2-6.4,33.8-1.4l76.9,44.4c3,1.7,4.4,0.5,5.2,2.7c0.4,1.2,0.7,5.9,0.5,7.2
				c-0.7,3.4-3.3,6.9-8.1,9.6L267,241.2c-10,5.8-25.2,6.4-33.8,1.4l-76.9-44.4c-3.7-2.1-5.6-5-5.8-8c-0.1-1.1,0.2-5.1,0.7-6.2
				c1.1-2.9,3.4-2.9,7.6-5.4L339.5,74.3z"/>
			
				<linearGradient id="SVGID_34_" gradientUnits="userSpaceOnUse" x1="454.0948" y1="205.9461" x2="143.5877" y2="145.4356" gradientTransform="matrix(1 0 0 -1 0 334)">
				<stop  offset="3.535350e-02" style="stop-color:#9D68DD"/>
				<stop  offset="0.5488" style="stop-color:#AC60D7"/>
				<stop  offset="0.9848" style="stop-color:#BD57D1"/>
			</linearGradient>
			<path class="st48" d="M339.5,74c10-5.8,25.2-6.4,33.8-1.4l76.9,44.4c2.9,1.7,4.3,0.7,5.2,2.9c0.5,1.3,0.8,5.8,0.5,7.1
				c-0.7,3.4-3.3,6.8-8.1,9.6L267,240.9c-10,5.8-25.2,6.4-33.8,1.4l-76.9-44.4c-3.7-2.1-5.6-5-5.8-7.9c-0.1-1.1,0.2-5,0.7-6.2
				c1.2-2.8,3.4-3.1,7.5-5.5L339.5,74z"/>
			
				<linearGradient id="SVGID_35_" gradientUnits="userSpaceOnUse" x1="454.0288" y1="206.2832" x2="143.5804" y2="145.7841" gradientTransform="matrix(1 0 0 -1 0 334)">
				<stop  offset="3.535350e-02" style="stop-color:#A26EDD"/>
				<stop  offset="0.6096" style="stop-color:#B166D8"/>
				<stop  offset="0.9848" style="stop-color:#BE5FD3"/>
			</linearGradient>
			<path class="st49" d="M339.5,73.6c10-5.8,25.2-6.4,33.8-1.4l76.9,44.4c2.8,1.6,4.3,0.9,5.1,3c0.6,1.4,0.9,5.6,0.5,7
				c-0.7,3.3-3.4,6.8-8.1,9.5L267,240.6c-10,5.8-25.2,6.4-33.8,1.4l-76.9-44.4c-3.7-2.1-5.5-4.9-5.8-7.9c-0.1-1.2,0.3-4.9,0.8-6.1
				c1.2-2.7,3.4-3.2,7.5-5.5L339.5,73.6z"/>
			
				<linearGradient id="SVGID_36_" gradientUnits="userSpaceOnUse" x1="453.9783" y1="206.5734" x2="143.5821" y2="146.0845" gradientTransform="matrix(1 0 0 -1 0 334)">
				<stop  offset="3.535350e-02" style="stop-color:#A674DE"/>
				<stop  offset="0.6464" style="stop-color:#B56CD9"/>
				<stop  offset="0.9848" style="stop-color:#C067D5"/>
			</linearGradient>
			<path class="st50" d="M339.5,73.3c10-5.8,25.2-6.4,33.8-1.4l76.9,44.4c2.8,1.6,4.2,1.1,5.1,3.1c0.6,1.5,0.9,5.5,0.6,7
				c-0.8,3.3-3.4,6.7-8.1,9.4L267,240.3c-10,5.8-25.2,6.4-33.8,1.4l-76.9-44.4c-3.7-2.1-5.5-4.9-5.8-7.8c-0.1-1.3,0.3-4.7,0.9-6.1
				c1.2-2.7,3.4-3.3,7.4-5.6L339.5,73.3z"/>
			
				<linearGradient id="SVGID_37_" gradientUnits="userSpaceOnUse" x1="453.9343" y1="206.8649" x2="143.5836" y2="146.3848" gradientTransform="matrix(1 0 0 -1 0 334)">
				<stop  offset="3.535350e-02" style="stop-color:#AB7BDF"/>
				<stop  offset="0.7383" style="stop-color:#BA73D9"/>
				<stop  offset="0.9848" style="stop-color:#C16FD6"/>
			</linearGradient>
			<path class="st51" d="M339.5,73c10-5.8,25.2-6.4,33.8-1.4l76.9,44.4c2.7,1.5,4.1,1.3,5,3.3c0.7,1.5,1,5.3,0.6,6.9
				c-0.8,3.3-3.4,6.7-8.1,9.4L267,240c-10,5.8-25.2,6.4-33.8,1.4l-77-44.4c-3.6-2.1-5.5-4.9-5.8-7.8c-0.1-1.4,0.3-4.6,0.9-6
				c1.2-2.6,3.5-3.5,7.3-5.7L339.5,73z"/>
			
				<linearGradient id="SVGID_38_" gradientUnits="userSpaceOnUse" x1="453.8875" y1="207.2057" x2="143.5754" y2="146.7331" gradientTransform="matrix(1 0 0 -1 0 334)">
				<stop  offset="3.535350e-02" style="stop-color:#B081DF"/>
				<stop  offset="0.867" style="stop-color:#BF78D9"/>
				<stop  offset="0.9848" style="stop-color:#C277D8"/>
			</linearGradient>
			<path class="st52" d="M339.5,72.7c10-5.8,25.2-6.4,33.8-1.4l76.9,44.4c2.6,1.5,4,1.5,4.9,3.4c0.8,1.6,1.1,5.2,0.7,6.9
				c-0.8,3.3-3.4,6.6-8.1,9.3L267,239.6c-10,5.8-25.2,6.4-33.8,1.4l-76.9-44.4c-3.6-2.1-5.5-4.8-5.8-7.8c-0.2-1.4,0.3-4.5,1-6
				c1.2-2.6,3.5-3.6,7.2-5.8L339.5,72.7z"/>
			
				<linearGradient id="SVGID_39_" gradientUnits="userSpaceOnUse" x1="453.8565" y1="207.4997" x2="143.5763" y2="147.0334" gradientTransform="matrix(1 0 0 -1 0 334)">
				<stop  offset="3.535350e-02" style="stop-color:#B487E0"/>
				<stop  offset="0.9534" style="stop-color:#C37EDA"/>
				<stop  offset="0.9848" style="stop-color:#C47EDA"/>
			</linearGradient>
			<path class="st53" d="M339.5,72.4c10-5.8,25.2-6.4,33.8-1.4l76.9,44.4c2.5,1.4,4,1.7,4.9,3.5c0.8,1.7,1.2,5,0.7,6.8
				c-0.8,3.2-3.4,6.6-8,9.2L267,239.3c-10,5.8-25.2,6.4-33.8,1.4l-76.9-44.4c-3.6-2.1-5.5-4.8-5.8-7.7c-0.2-1.5,0.3-4.4,1.1-6
				c1.3-2.5,3.5-3.7,7.2-5.9L339.5,72.4z"/>
			
				<linearGradient id="SVGID_40_" gradientUnits="userSpaceOnUse" x1="453.8316" y1="207.7949" x2="143.5769" y2="147.3334" gradientTransform="matrix(1 0 0 -1 0 334)">
				<stop  offset="3.535350e-02" style="stop-color:#B98DE1"/>
				<stop  offset="0.9848" style="stop-color:#C586DC"/>
			</linearGradient>
			<path class="st54" d="M339.5,72.1c10-5.8,25.2-6.4,33.8-1.4l76.9,44.4c2.4,1.4,3.9,1.9,4.8,3.6c0.9,1.8,1.3,4.9,0.8,6.8
				c-0.8,3.2-3.5,6.5-8,9.1L267,239c-10,5.8-25.2,6.4-33.8,1.4l-77-44.4c-3.6-2.1-5.5-4.8-5.8-7.7c-0.2-1.6,0.3-4.3,1.1-5.9
				c1.3-2.4,3.5-3.9,7.1-5.9L339.5,72.1z"/>
			
				<linearGradient id="SVGID_41_" gradientUnits="userSpaceOnUse" x1="453.8123" y1="208.0911" x2="143.5773" y2="147.6335" gradientTransform="matrix(1 0 0 -1 0 334)">
				<stop  offset="3.535350e-02" style="stop-color:#BD93E1"/>
				<stop  offset="0.9848" style="stop-color:#C78EDE"/>
			</linearGradient>
			<path class="st55" d="M339.5,71.8c10-5.8,25.2-6.4,33.8-1.4l76.9,44.4c2.3,1.4,3.8,2.1,4.8,3.8c1,1.8,1.3,4.7,0.8,6.7
				c-0.8,3.2-3.5,6.4-8,9.1L267,238.7c-10,5.8-25.2,6.4-33.8,1.4l-76.9-44.4c-3.6-2.1-5.5-4.8-5.8-7.6c-0.2-1.7,0.3-4.2,1.2-5.9
				c1.3-2.4,3.6-4,7-6L339.5,71.8z"/>
			
				<linearGradient id="SVGID_42_" gradientUnits="userSpaceOnUse" x1="453.7886" y1="208.4364" x2="143.5681" y2="147.9818" gradientTransform="matrix(1 0 0 -1 0 334)">
				<stop  offset="3.535350e-02" style="stop-color:#C29AE2"/>
				<stop  offset="0.9848" style="stop-color:#C896DF"/>
			</linearGradient>
			<path class="st56" d="M339.5,71.4c10-5.8,25.2-6.4,33.8-1.4l76.9,44.4c2.3,1.3,3.7,2.2,4.7,3.9c1.1,1.9,1.4,4.6,0.9,6.6
				c-0.8,3.2-3.5,6.4-8,9L267,238.4c-10,5.8-25.2,6.4-33.8,1.4l-76.9-44.4c-3.6-2.1-5.5-4.7-5.8-7.6c-0.2-1.7,0.3-4.1,1.3-5.9
				c1.3-2.3,3.6-4.1,7-6.1L339.5,71.4z"/>
			
				<linearGradient id="SVGID_43_" gradientUnits="userSpaceOnUse" x1="453.779" y1="208.7346" x2="143.5681" y2="148.2817" gradientTransform="matrix(1 0 0 -1 0 334)">
				<stop  offset="3.535350e-02" style="stop-color:#C6A0E2"/>
				<stop  offset="0.9848" style="stop-color:#CA9EE1"/>
			</linearGradient>
			<path class="st57" d="M339.5,71.1c10-5.8,25.2-6.4,33.8-1.4l76.9,44.4c2.2,1.3,3.7,2.4,4.6,4c1.2,2,1.5,4.4,0.9,6.6
				c-0.8,3.2-3.5,6.3-8,8.9L267,238.1c-10,5.8-25.2,6.4-33.8,1.4l-76.9-44.4c-3.5-2-5.5-4.7-5.8-7.6c-0.2-1.8,0.2-4,1.3-5.8
				c1.3-2.3,3.6-4.3,6.9-6.2L339.5,71.1z"/>
			<path class="st58" d="M233.1,239.2l-76.9-44.4c-8.7-5-7.6-13.8,2.4-19.5L339.5,70.8c10-5.8,25.2-6.4,33.8-1.4l76.9,44.4
				c8.7,5,7.6,13.8-2.4,19.5L267,237.8C257,243.5,241.8,244.2,233.1,239.2z"/>
		</g>
		<g>
			<path class="st58" d="M233.1,239.2l-76.9-44.4c-8.7-5-7.6-13.8,2.4-19.5L339.5,70.8c10-5.8,25.2-6.4,33.8-1.4l76.9,44.4
				c8.7,5,7.6,13.8-2.4,19.5L267,237.8C257,243.5,241.8,244.2,233.1,239.2z"/>
			<path class="st59" d="M158.7,175.2L339.5,70.9c10-5.8,25.1-6.4,33.8-1.4l76.9,44.4c8.7,5,7.6,13.7-2.4,19.5L266.9,237.7
				c-10,5.8-25.1,6.4-33.8,1.4l-76.9-44.4C147.6,189.7,148.7,181,158.7,175.2z"/>
			<path class="st60" d="M158.8,175.2L339.5,70.9c10-5.8,25-6.4,33.7-1.4l76.8,44.4c8.6,5,7.6,13.7-2.4,19.4L266.9,237.7
				c-10,5.8-25,6.4-33.7,1.4l-76.8-44.4C147.7,189.7,148.8,181,158.8,175.2z"/>
			<path class="st61" d="M158.8,175.2L339.5,70.9c9.9-5.7,25-6.4,33.6-1.4l76.8,44.4c8.6,5,7.5,13.7-2.4,19.4L266.9,237.6
				c-9.9,5.7-25,6.4-33.6,1.4l-76.8-44.4C147.8,189.7,148.9,181,158.8,175.2z"/>
			<path class="st62" d="M158.9,175.3L339.6,71c9.9-5.7,24.9-6.3,33.5-1.4l76.8,44.3c8.6,5,7.5,13.6-2.4,19.4L266.8,237.5
				c-9.9,5.7-24.9,6.3-33.5,1.4l-76.8-44.3C147.9,189.6,149,181,158.9,175.3z"/>
			<path class="st63" d="M159,175.3L339.6,71c9.9-5.7,24.9-6.3,33.4-1.4l76.8,44.3c8.6,4.9,7.5,13.6-2.4,19.3L266.8,237.5
				c-9.9,5.7-24.9,6.3-33.4,1.4l-76.8-44.3C148,189.6,149.1,181,159,175.3z"/>
			<path class="st64" d="M159,175.3L339.6,71c9.9-5.7,24.8-6.3,33.4-1.4l76.7,44.3c8.5,4.9,7.5,13.6-2.4,19.3L266.7,237.4
				c-9.9,5.7-24.8,6.3-33.4,1.4l-76.7-44.3C148.1,189.6,149.2,181,159,175.3z"/>
			<path class="st65" d="M159.1,175.3L339.6,71.1c9.8-5.7,24.7-6.3,33.3-1.4l76.7,44.3c8.5,4.9,7.5,13.5-2.4,19.2L266.7,237.4
				c-9.8,5.7-24.7,6.3-33.3,1.4l-76.7-44.3C148.2,189.6,149.3,181,159.1,175.3z"/>
			<path class="st66" d="M159.2,175.3L339.6,71.1c9.8-5.7,24.7-6.3,33.2-1.4l76.7,44.3c8.5,4.9,7.4,13.5-2.4,19.2L266.7,237.3
				c-9.8,5.7-24.7,6.3-33.2,1.4l-76.7-44.3C148.3,189.5,149.4,180.9,159.2,175.3z"/>
			<path class="st67" d="M159.2,175.3L339.7,71.1c9.8-5.7,24.6-6.3,33.1-1.4l76.6,44.3c8.5,4.9,7.4,13.5-2.4,19.1L266.6,237.3
				c-9.8,5.7-24.6,6.3-33.1,1.4l-76.6-44.3C148.4,189.5,149.4,180.9,159.2,175.3z"/>
			<path class="st68" d="M159.3,175.3L339.7,71.2c9.8-5.6,24.6-6.3,33-1.4l76.6,44.2c8.5,4.9,7.4,13.4-2.4,19.1L266.6,237.2
				c-9.8,5.6-24.6,6.3-33,1.4L157,194.4C148.5,189.5,149.5,180.9,159.3,175.3z"/>
			<path class="st69" d="M159.4,175.3L339.7,71.2c9.8-5.6,24.5-6.2,32.9-1.4l76.6,44.2c8.4,4.9,7.4,13.4-2.4,19L266.5,237.2
				c-9.8,5.6-24.5,6.2-32.9,1.4L157,194.3C148.6,189.4,149.6,180.9,159.4,175.3z"/>
			<path class="st70" d="M159.4,175.3L339.7,71.2c9.7-5.6,24.4-6.2,32.9-1.4l76.6,44.2c8.4,4.9,7.4,13.4-2.4,19L266.5,237.1
				c-9.7,5.6-24.4,6.2-32.9,1.4L157,194.3C148.7,189.4,149.7,180.9,159.4,175.3z"/>
			<path class="st71" d="M159.5,175.3l180.2-104c9.7-5.6,24.4-6.2,32.8-1.4l76.5,44.2c8.4,4.9,7.3,13.3-2.4,18.9L266.5,237.1
				c-9.7,5.6-24.4,6.2-32.8,1.4l-76.5-44.2C148.7,189.4,149.8,180.9,159.5,175.3z"/>
			<path class="st72" d="M159.6,175.3l180.2-104c9.7-5.6,24.3-6.2,32.7-1.4l76.5,44.2c8.4,4.8,7.3,13.3-2.3,18.9L266.4,237
				c-9.7,5.6-24.3,6.2-32.7,1.4l-76.5-44.2C148.8,189.4,149.9,180.9,159.6,175.3z"/>
			<path class="st73" d="M159.6,175.3l180.1-104c9.7-5.6,24.3-6.2,32.6-1.4l76.5,44.2c8.4,4.8,7.3,13.3-2.3,18.8L266.4,237
				c-9.7,5.6-24.3,6.2-32.6,1.4l-76.5-44.2C148.9,189.3,150,180.9,159.6,175.3z"/>
			<path class="st74" d="M159.7,175.3l180.1-104c9.6-5.6,24.2-6.2,32.5-1.3l76.4,44.1c8.3,4.8,7.3,13.2-2.3,18.8l-180.1,104
				c-9.6,5.6-24.2,6.2-32.5,1.3l-76.4-44.1C149,189.3,150.1,180.9,159.7,175.3z"/>
			<path class="st75" d="M159.8,175.3l180-103.9c9.6-5.5,24.1-6.1,32.5-1.3l76.4,44.1c8.3,4.8,7.3,13.2-2.3,18.7l-180,103.9
				c-9.6,5.5-24.1,6.1-32.5,1.3L157.5,194C149.1,189.3,150.2,180.9,159.8,175.3z"/>
			<path class="st76" d="M159.8,175.3l180-103.9c9.6-5.5,24.1-6.1,32.4-1.3l76.4,44.1c8.3,4.8,7.3,13.2-2.3,18.7l-180,103.9
				c-9.6,5.5-24.1,6.1-32.4,1.3L157.5,194C149.2,189.2,150.2,180.9,159.8,175.3z"/>
			<path class="st77" d="M159.9,175.3L339.8,71.5c9.6-5.5,24-6.1,32.3-1.3l76.4,44.1c8.3,4.8,7.2,13.1-2.3,18.6l-180,103.8
				c-9.6,5.5-24,6.1-32.3,1.3l-76.3-44C149.3,189.2,150.3,180.9,159.9,175.3z"/>
			<path class="st78" d="M160,175.4L339.9,71.5c9.5-5.5,24-6.1,32.2-1.3l76.3,44.1c8.3,4.8,7.2,13.1-2.3,18.6L266.2,236.7
				c-9.5,5.5-24,6.1-32.2,1.3l-76.3-44.1C149.4,189.2,150.4,180.9,160,175.4z"/>
			<path class="st79" d="M160,175.4L339.9,71.5c9.5-5.5,23.9-6.1,32.1-1.3l76.3,44.1c8.2,4.8,7.2,13.1-2.3,18.6L266.2,236.6
				c-9.5,5.5-23.9,6.1-32.1,1.3l-76.3-44.1C149.5,189.2,150.5,180.8,160,175.4z"/>
			<path class="st80" d="M160.1,175.4L339.9,71.6c9.5-5.5,23.8-6.1,32-1.3l76.3,44c8.2,4.7,7.2,13-2.3,18.5L266.1,236.6
				c-9.5,5.5-23.8,6.1-32,1.3l-76.3-44C149.6,189.1,150.6,180.8,160.1,175.4z"/>
			<path class="st81" d="M160.2,175.4L339.9,71.6c9.5-5.5,23.8-6.1,32-1.3l76.2,44c8.2,4.7,7.2,13-2.3,18.5L266.1,236.5
				c-9.5,5.5-23.8,6.1-32,1.3l-76.2-44C149.7,189.1,150.7,180.8,160.2,175.4z"/>
			<path class="st82" d="M160.2,175.4L339.9,71.6c9.4-5.4,23.7-6,31.9-1.3l76.2,44c8.2,4.7,7.1,13-2.3,18.4L266,236.5
				c-9.4,5.4-23.7,6-31.9,1.3l-76.2-44C149.8,189.1,150.8,180.8,160.2,175.4z"/>
			<path class="st83" d="M160.3,175.4L339.9,71.7c9.4-5.4,23.7-6,31.8-1.3l76.2,44c8.2,4.7,7.1,12.9-2.3,18.4L266,236.4
				c-9.4,5.4-23.7,6-31.8,1.3l-76.2-44C149.9,189,150.9,180.8,160.3,175.4z"/>
			<path class="st84" d="M160.4,175.4L340,71.7c9.4-5.4,23.6-6,31.7-1.3l76.2,44c8.1,4.7,7.1,12.9-2.3,18.3L266,236.4
				c-9.4,5.4-23.6,6-31.7,1.3l-76.2-44C149.9,189,151,180.8,160.4,175.4z"/>
			<path class="st85" d="M160.4,175.4L340,71.7c9.4-5.4,23.5-6,31.6-1.3l76.1,44c8.1,4.7,7.1,12.9-2.3,18.3L265.9,236.3
				c-9.4,5.4-23.5,6-31.6,1.3l-76.1-44C150,189,151.1,180.8,160.4,175.4z"/>
			<path class="st86" d="M160.5,175.4L340,71.8c9.3-5.4,23.5-6,31.6-1.3l76.1,43.9c8.1,4.7,7.1,12.8-2.3,18.2L265.9,236.3
				c-9.3,5.4-23.5,6-31.6,1.3l-76.1-43.9C150.1,189,151.1,180.8,160.5,175.4z"/>
			<path class="st86" d="M160.6,175.4L340,71.8c9.3-5.4,23.4-6,31.5-1.3l76.1,43.9c8.1,4.7,7.1,12.8-2.3,18.2L265.8,236.2
				c-9.3,5.4-23.4,6-31.5,1.3l-76.1-43.9C150.2,188.9,151.2,180.8,160.6,175.4z"/>
			<path class="st87" d="M160.6,175.4L340,71.8c9.3-5.4,23.3-5.9,31.4-1.3l76,43.9c8,4.6,7,12.8-2.3,18.1L265.8,236.1
				c-9.3,5.4-23.3,5.9-31.4,1.3l-76-43.9C150.3,188.9,151.3,180.8,160.6,175.4z"/>
			<path class="st88" d="M160.7,175.4L340.1,71.9c9.3-5.4,23.3-5.9,31.3-1.3l76,43.9c8,4.6,7,12.7-2.2,18.1L265.8,236.1
				c-9.3,5.4-23.3,5.9-31.3,1.3l-76-43.9C150.4,188.9,151.4,180.8,160.7,175.4z"/>
			<path class="st89" d="M160.7,175.4L340.1,71.9c9.2-5.3,23.2-5.9,31.2-1.3l76,43.9c8,4.6,7,12.7-2.2,18L265.7,236
				c-9.2,5.3-23.2,5.9-31.2,1.3l-76-43.9C150.5,188.8,151.5,180.8,160.7,175.4z"/>
			<path class="st90" d="M160.8,175.4L340.1,71.9c9.2-5.3,23.2-5.9,31.2-1.3l76,43.9c8,4.6,7,12.7-2.2,18L265.7,236
				c-9.2,5.3-23.2,5.9-31.2,1.3l-76-43.9C150.6,188.8,151.6,180.8,160.8,175.4z"/>
			<path class="st91" d="M160.9,175.4L340.1,72c9.2-5.3,23.1-5.9,31.1-1.3l75.9,43.8c8,4.6,7,12.6-2.2,17.9L265.6,235.9
				c-9.2,5.3-23.1,5.9-31.1,1.3l-75.9-43.8C150.7,188.8,151.7,180.7,160.9,175.4z"/>
			<path class="st92" d="M160.9,175.4L340.1,72c9.2-5.3,23-5.9,31-1.3l75.9,43.8c7.9,4.6,6.9,12.6-2.2,17.9L265.6,235.9
				c-9.2,5.3-23,5.9-31,1.3l-75.9-43.8C150.8,188.8,151.8,180.7,160.9,175.4z"/>
			<path class="st93" d="M161,175.5L340.1,72c9.1-5.3,23-5.9,30.9-1.3l75.9,43.8c7.9,4.6,6.9,12.6-2.2,17.8L265.6,235.8
				c-9.1,5.3-23,5.9-30.9,1.3l-75.9-43.8C150.9,188.7,151.9,180.7,161,175.5z"/>
			<path class="st94" d="M161.1,175.5L340.2,72.1c9.1-5.3,22.9-5.8,30.8-1.3l75.8,43.8c7.9,4.6,6.9,12.5-2.2,17.8L265.5,235.8
				c-9.1,5.3-22.9,5.8-30.8,1.3l-75.8-43.8C151,188.7,152,180.7,161.1,175.5z"/>
			<path class="st95" d="M161.1,175.5l179-103.4c9.1-5.3,22.9-5.8,30.7-1.3l75.8,43.8c7.9,4.5,6.9,12.5-2.2,17.7l-179,103.4
				c-9.1,5.3-22.9,5.8-30.7,1.3l-75.8-43.8C151.1,188.7,152,180.7,161.1,175.5z"/>
			<path class="st96" d="M161.2,175.5l179-103.3c9.1-5.2,22.8-5.8,30.7-1.3l75.8,43.8c7.9,4.5,6.9,12.5-2.2,17.7l-179,103.3
				c-9.1,5.2-22.8,5.8-30.7,1.3L159,193.2C151.1,188.6,152.1,180.7,161.2,175.5z"/>
			<path class="st97" d="M161.3,175.5L340.2,72.2c9.1-5.2,22.7-5.8,30.6-1.3l75.8,43.7c7.8,4.5,6.9,12.4-2.2,17.7l-179,103.3
				c-9.1,5.2-22.7,5.8-30.6,1.3L159,193.2C151.2,188.6,152.2,180.7,161.3,175.5z"/>
			<path class="st98" d="M161.3,175.5L340.2,72.2c9-5.2,22.7-5.8,30.5-1.3l75.7,43.7c7.8,4.5,6.8,12.4-2.2,17.6L265.4,235.5
				c-9,5.2-22.7,5.8-30.5,1.3l-75.7-43.7C151.3,188.6,152.3,180.7,161.3,175.5z"/>
			<path class="st99" d="M161.4,175.5L340.2,72.2c9-5.2,22.6-5.8,30.4-1.3l75.7,43.7c7.8,4.5,6.8,12.4-2.2,17.6L265.3,235.5
				c-9,5.2-22.6,5.8-30.4,1.3l-75.7-43.7C151.4,188.6,152.4,180.7,161.4,175.5z"/>
			<path class="st100" d="M161.5,175.5L340.3,72.3c9-5.2,22.6-5.7,30.3-1.3l75.7,43.7c7.8,4.5,6.8,12.3-2.2,17.5L265.3,235.4
				c-9,5.2-22.6,5.7-30.3,1.3L159.3,193C151.5,188.5,152.5,180.7,161.5,175.5z"/>
			<path class="st101" d="M161.5,175.5L340.3,72.3c9-5.2,22.5-5.7,30.3-1.3l75.6,43.7c7.8,4.5,6.8,12.3-2.2,17.5L265.3,235.4
				c-9,5.2-22.5,5.7-30.3,1.3L159.4,193C151.6,188.5,152.6,180.7,161.5,175.5z"/>
			<path class="st102" d="M161.6,175.5L340.3,72.3c8.9-5.2,22.4-5.7,30.2-1.3l75.6,43.7c7.7,4.5,6.8,12.3-2.2,17.4L265.2,235.3
				c-8.9,5.2-22.4,5.7-30.2,1.3l-75.6-43.7C151.7,188.5,152.7,180.7,161.6,175.5z"/>
			<path class="st103" d="M161.7,175.5L340.3,72.4c8.9-5.1,22.4-5.7,30.1-1.2l75.6,43.6c7.7,4.5,6.7,12.2-2.2,17.4L265.2,235.3
				c-8.9,5.1-22.4,5.7-30.1,1.2l-75.6-43.6C151.8,188.4,152.8,180.7,161.7,175.5z"/>
			<path class="st104" d="M161.7,175.5L340.3,72.4c8.9-5.1,22.3-5.7,30-1.2l75.6,43.6c7.7,4.4,6.7,12.2-2.2,17.3L265.1,235.2
				c-8.9,5.1-22.3,5.7-30,1.2l-75.6-43.6C151.9,188.4,152.8,180.7,161.7,175.5z"/>
			<path class="st105" d="M161.8,175.5L340.4,72.4c8.9-5.1,22.3-5.7,29.9-1.2l75.5,43.6c7.7,4.4,6.7,12.2-2.1,17.3L265.1,235.2
				c-8.9,5.1-22.3,5.7-29.9,1.2l-75.5-43.6C152,188.4,152.9,180.6,161.8,175.5z"/>
			<path class="st106" d="M161.9,175.5l178.5-103c8.8-5.1,22.2-5.7,29.8-1.2l75.5,43.6c7.6,4.4,6.7,12.1-2.1,17.2l-178.5,103
				c-8.8,5.1-22.2,5.7-29.8,1.2l-75.5-43.6C152.1,188.3,153,180.6,161.9,175.5z"/>
			<path class="st107" d="M161.9,175.5l178.5-103c8.8-5.1,22.1-5.6,29.8-1.2l75.5,43.6c7.6,4.4,6.7,12.1-2.1,17.2L265,235.1
				c-8.8,5.1-22.1,5.6-29.8,1.2l-75.5-43.6C152.2,188.3,153.1,180.6,161.9,175.5z"/>
			<path class="st108" d="M162,175.5l178.4-103c8.8-5.1,22.1-5.6,29.7-1.2l75.4,43.6c7.6,4.4,6.7,12.1-2.1,17.1L265,235
				c-8.8,5.1-22.1,5.6-29.7,1.2l-75.4-43.6C152.3,188.3,153.2,180.6,162,175.5z"/>
			<path class="st109" d="M162.1,175.6l178.4-103c8.8-5.1,22-5.6,29.6-1.2l75.4,43.5c7.6,4.4,6.6,12-2.1,17.1L264.9,235
				c-8.8,5.1-22,5.6-29.6,1.2l-75.4-43.5C152.3,188.3,153.3,180.6,162.1,175.6z"/>
			<path class="st110" d="M162.1,175.6l178.3-103c8.7-5,22-5.6,29.5-1.2l75.4,43.5c7.6,4.4,6.6,12-2.1,17l-178.3,103
				c-8.7,5-22,5.6-29.5,1.2L160,192.6C152.4,188.2,153.4,180.6,162.1,175.6z"/>
			<path class="st111" d="M162.2,175.6l178.3-103c8.7-5,21.9-5.6,29.4-1.2l75.3,43.5c7.5,4.4,6.6,12-2.1,17L264.9,234.8
				c-8.7,5-21.9,5.6-29.4,1.2l-75.3-43.5C152.5,188.2,153.5,180.6,162.2,175.6z"/>
			<path class="st112" d="M162.3,175.6L340.5,72.7c8.7-5,21.8-5.6,29.4-1.2l75.3,43.5c7.5,4.3,6.6,11.9-2.1,16.9L264.8,234.8
				c-8.7,5-21.8,5.6-29.4,1.2l-75.3-43.5C152.6,188.2,153.6,180.6,162.3,175.6z"/>
			<path class="st113" d="M162.3,175.6L340.5,72.7c8.7-5,21.8-5.5,29.3-1.2l75.3,43.5c7.5,4.3,6.6,11.9-2.1,16.9L264.8,234.7
				c-8.7,5-21.8,5.5-29.3,1.2l-75.3-43.5C152.7,188.1,153.7,180.6,162.3,175.6z"/>
			<path class="st114" d="M162.4,175.6L340.5,72.7c8.6-5,21.7-5.5,29.2-1.2L445,115c7.5,4.3,6.5,11.9-2.1,16.9L264.7,234.7
				c-8.6,5-21.7,5.5-29.2,1.2l-75.3-43.5C152.8,188.1,153.7,180.6,162.4,175.6z"/>
		</g>
		
			<linearGradient id="SVGID_44_" gradientUnits="userSpaceOnUse" x1="418.5107" y1="173.4348" x2="414.6086" y2="182.0193" gradientTransform="matrix(1 0 0 -1 0 334)">
			<stop  offset="3.535350e-02" style="stop-color:#6B24D6"/>
			<stop  offset="0.316" style="stop-color:#7A1CD0"/>
			<stop  offset="0.8574" style="stop-color:#A306C1"/>
			<stop  offset="0.9848" style="stop-color:#AD00BD"/>
		</linearGradient>
		<path class="st115" d="M411.8,161.2l9.1-5.3c1.1-0.7,2.1-2.4,2.1-3.9l0,0c0-1.5-0.9-2.2-2.1-1.6l-9.1,5.3
			c-1.1,0.7-2.1,2.4-2.1,3.9l0,0C409.7,161.2,410.7,161.9,411.8,161.2z"/>
		
			<linearGradient id="SVGID_45_" gradientUnits="userSpaceOnUse" x1="6617.1445" y1="677.3801" x2="6610.4941" y2="664.9775" gradientTransform="matrix(-0.866 0.5 0.5 -1.4434 5806.458 -2119.0669)">
			<stop  offset="3.535350e-02" style="stop-color:#B081DF"/>
			<stop  offset="0.867" style="stop-color:#BF78D9"/>
			<stop  offset="0.9848" style="stop-color:#C277D8"/>
		</linearGradient>
		<path class="st116" d="M411,160.9c0.2,0,0.4-0.1,0.6-0.2l9.1-5.3c1-0.6,1.8-2.2,1.8-3.5c0-0.6-0.2-1.3-0.7-1.3
			c-0.2,0-0.4,0.1-0.6,0.2l-9.1,5.3c-1,0.6-1.8,2.2-1.8,3.5C410.3,160.2,410.5,160.9,411,160.9z"/>
		
			<linearGradient id="SVGID_46_" gradientUnits="userSpaceOnUse" x1="403.3834" y1="160.5537" x2="397.7905" y2="174.341" gradientTransform="matrix(1 0 0 -1 0 334)">
			<stop  offset="3.535350e-02" style="stop-color:#6B24D6"/>
			<stop  offset="0.316" style="stop-color:#7A1CD0"/>
			<stop  offset="0.8574" style="stop-color:#A306C1"/>
			<stop  offset="0.9848" style="stop-color:#AD00BD"/>
		</linearGradient>
		<path class="st117" d="M395.5,170.6l9.1-5.3c1.1-0.7,2.1-2.4,2.1-3.9l0,0c0-1.5-0.9-2.2-2.1-1.6l-9.1,5.3
			c-1.1,0.7-2.1,2.4-2.1,3.9l0,0C393.4,170.6,394.3,171.3,395.5,170.6z"/>
		
			<linearGradient id="SVGID_47_" gradientUnits="userSpaceOnUse" x1="6631.7622" y1="669.5413" x2="6625.1113" y2="657.1385" gradientTransform="matrix(-0.866 0.5 0.5 -1.4434 5806.458 -2119.0669)">
			<stop  offset="3.535350e-02" style="stop-color:#B081DF"/>
			<stop  offset="0.867" style="stop-color:#BF78D9"/>
			<stop  offset="0.9848" style="stop-color:#C277D8"/>
		</linearGradient>
		<path class="st118" d="M394.7,170.3c0.2,0,0.4-0.1,0.6-0.2l9.1-5.3c1-0.6,1.8-2.2,1.8-3.5c0-0.6-0.2-1.3-0.7-1.3
			c-0.2,0-0.4,0.1-0.6,0.2l-9.1,5.3c-1,0.6-1.8,2.2-1.8,3.5C394,169.7,394.1,170.3,394.7,170.3z"/>
		
			<linearGradient id="SVGID_48_" gradientUnits="userSpaceOnUse" x1="352.1593" y1="257.877" x2="206.3462" y2="29.2561" gradientTransform="matrix(1 0 0 -1 0 334)">
			<stop  offset="0" style="stop-color:#FFFFFF"/>
			<stop  offset="1" style="stop-color:#E5D4EF"/>
		</linearGradient>
		<path class="st119" d="M248.6,236.2L248.6,236.2c-4.2,0-8.2-1-11.2-2.7l-73.1-42.2c-3.1-1.8-4.8-4.2-4.8-6.7s1.7-4.9,4.7-6.7
			L346.4,72.8c2.9-1.7,6.9-2.6,11-2.6c4.2,0,8.2,1,11.2,2.7l73.1,42.2c3.1,1.8,4.8,4.2,4.8,6.7s-1.7,4.9-4.7,6.7L259.6,233.6
			C256.6,235.3,252.7,236.2,248.6,236.2z M357.4,71.1c-4,0-7.7,0.9-10.5,2.5L164.7,178.8c-2.7,1.6-4.2,3.6-4.2,5.8s1.5,4.3,4.3,5.8
			l73.1,42.2c2.8,1.6,6.6,2.5,10.6,2.5l0,0c4,0,7.7-0.9,10.5-2.5l182.1-105.2c2.7-1.6,4.2-3.6,4.2-5.8c0-2.2-1.5-4.3-4.3-5.8
			l-73-42.1C365.2,72.1,361.4,71.1,357.4,71.1z"/>
		<path class="st120" d="M408.6,103.3l-18.1-10.5c-0.7-0.4-0.6-1.1,0.2-1.6l0,0c0.8-0.5,2.1-0.5,2.8-0.1l18.1,10.5
			c0.7,0.4,0.6,1.1-0.2,1.6l0,0C410.6,103.7,409.3,103.7,408.6,103.3z"/>
	</g>
	<path class="st121" d="M309.3,152.7l-11.8-6.8l-2.7,1.6l11.8,6.8L309.3,152.7z M304,156.9l-14-8.1l-2.7,1.6l14,8.1L304,156.9z
		 M321.2,159.6l-9.6-5.6l-2.7,1.6l9.6,5.6L321.2,159.6z M327.3,163l-3.8-2.2l-2.7,1.6l3.8,2.2L327.3,163z M272,131.1l-8.6-5
		l-2.7,1.6l8.6,5L272,131.1z M270.2,137.4l-13.1-7.6l-2.7,1.6l13.1,7.6L270.2,137.4z M306.2,158.2l-2.7,1.6l3.7,2.1l2.7-1.6
		L306.2,158.2z M289.6,141.3l-15.3-8.8l-2.7,1.6l15.3,8.8L289.6,141.3z M295.3,144.6l-3.4-2l-2.7,1.6l3.4,2L295.3,144.6z
		 M287.7,147.5l-7.4-4.3l-2.7,1.6l7.4,4.3L287.7,147.5z M272.5,138.7l-2.7,1.6l5.5,3.2l2.7-1.6L272.5,138.7z M309.5,163.2l10.1,5.8
		l2.7-1.6l-10.1-5.8L309.5,163.2z M342,171.5l-12.4-7.2l-2.7,1.6l12.4,7.2L342,171.5z M350,176.1l-5.7-3.3l-2.7,1.6l5.7,3.3
		L350,176.1z M280.5,165.8l-7.2-4.1l-2,1.2l7.2,4.1L280.5,165.8z M282.8,164l10.6,6.2l2-1.2l-10.6-6.2L282.8,164z M302.3,169.9
		l9,5.3l2-1.2l-9-5.3L302.3,169.9z M293.3,175.6l12.9,7.5l2-1.2l-12.9-7.5L293.3,175.6z M295.1,171.1l14,8.2l2-1.2l-14-8.2
		L295.1,171.1z M250.1,145.2l4.1,2.4l2-1.2l-4.1-2.4L250.1,145.2z M261.2,154.6l-2.5-1.5l-2,1.2l2.5,1.5L261.2,154.6z M263.5,150.5
		l-5.5-3.2l-2,1.2l5.5,3.2L263.5,150.5z M275.6,157.5l-10.5-6l-2,1.2l10.5,6L275.6,157.5z M285.9,174.4l-15.7-9.1l-2,1.2l15.7,9.1
		L285.9,174.4z M257.4,143.9l11.4,6.6l2-1.2l-11.4-6.6L257.4,143.9z M285.2,159.9l15.4,9l2-1.2l-15.4-9L285.2,159.9z M286.1,182.3
		l2-1.2l-11-6.4l-2,1.2L286.1,182.3z M306.5,186.4l-18.9-11l-2,1.2l18.9,11L306.5,186.4z M285.5,157.8l-8.8-5.1l-2,1.2l8.8,5.1
		L285.5,157.8z M259.4,159.1l-8.9-5.1l-2,1.2l8.9,5.1L259.4,159.1z M283.1,161.8l-5.8-3.4l-2,1.2l5.8,3.4L283.1,161.8z M248.9,153
		l-5.5-3.2l-2,1.2l5.5,3.2L248.9,153z M243.5,146.8l11.4,6.6l2-1.2l-11.4-6.6L243.5,146.8z M251.8,160.1l-11.4-6.6l-2,1.2l11.4,6.6
		L251.8,160.1z M271.6,160.7l-8.8-5.1l-2,1.2l8.8,5.1L271.6,160.7z M275.4,173.7l-7.2-4.1l-2,1.2l7.2,4.1L275.4,173.7z M262.2,173.9
		l2.7,1.6l2-1.2l-2.7-1.6L262.2,173.9z M266.6,176.5l7.5,4.3l2-1.2l-7.5-4.3L266.6,176.5z M255.7,164.7l8.8,5.1l2-1.2l-8.8-5.1
		L255.7,164.7z M242.9,162.8l5.5,3.2l2-1.2l-5.5-3.2L242.9,162.8z M268.5,164.3l-7.4-4.3l-2,1.2l7.4,4.3L268.5,164.3z M251.5,162.3
		l2.5,1.5l2-1.2l-2.5-1.5L251.5,162.3z M325.4,180.9l-2,1.2l8.7,4.9l2-1.2L325.4,180.9z M316,188.8l6.6,3.7l2-1.2l-6.6-3.7
		L316,188.8z M306.3,188.6l11.6,6.6l2-1.2l-11.6-6.6L306.3,188.6z M304.4,193l8.7,4.9l2-1.2l-8.7-4.9L304.4,193z M287.8,183.3
		l15,8.7l2-1.2l-15-8.7L287.8,183.3z M250,166.9l10.5,6l2-1.2l-10.5-6L250,166.9z M257.7,141.7l-11.3-6.5l-2,1.2l11.3,6.5
		L257.7,141.7z M312.9,176.1l8.8,5.1l2-1.2l-8.8-5.1L312.9,176.1z M270.5,151.5l2.5,1.5l2-1.2l-2.5-1.5L270.5,151.5z M329.2,188.5
		l-16.7-9.6l-2,1.2l16.7,9.6L329.2,188.5z M316.7,186.8l-6.7-3.9l-2,1.2l6.7,3.9L316.7,186.8z M293.7,173.5l-11.5-6.7l-2,1.2
		l11.5,6.7L293.7,173.5z M250.5,143l-8.7-5.1l-2,1.2l8.7,5.1L250.5,143z M220.8,150l14.6,8.4l2-1.2l-14.6-8.4L220.8,150z
		 M238.8,152.6l-11.2-6.5l-2,1.2l11.2,6.5L238.8,152.6z M241.7,148.8l-9.4-5.4l-2,1.2l9.4,5.4L241.7,148.8z M243.9,144.6l-6.8-4
		l-2,1.2l6.8,4L243.9,144.6z M237.1,159.4l4.1,2.4l2-1.2l-4.1-2.4L237.1,159.4z"/>
	<g>
		<path class="st121" d="M412.6,123.4l10.5,6.1c0.4,0.3,1.1,0.3,1.6,0c0.4-0.2,0.4-0.7,0-0.9l-10.5-6.1c-0.4-0.3-1.1-0.3-1.6,0
			C412.2,122.7,412.2,123.1,412.6,123.4z M422.1,130.1l-10.5-6.1c-0.4-0.3-1.1-0.3-1.6,0c-0.4,0.2-0.4,0.7,0,0.9l10.5,6.1
			c0.4,0.3,1.1,0.3,1.6,0C422.5,130.7,422.5,130.3,422.1,130.1z M419.4,131.6l-10.5-6.1c-0.4-0.3-1.1-0.3-1.6,0
			c-0.4,0.2-0.4,0.7,0,0.9l10.5,6.1c0.4,0.3,1.1,0.3,1.6,0C419.9,132.2,419.9,131.8,419.4,131.6z"/>
	</g>
	<g>
		<polygon class="st120" points="342.2,132.1 357.7,172.8 412.6,141 		"/>
		<polygon class="st120" points="356,172.5 340.5,131.9 270.1,123 		"/>
		<polygon class="st120" points="341.8,131.1 412.2,140.1 326.3,90.5 		"/>
		<polygon class="st120" points="269.7,122 340.1,130.9 324.6,90.3 		"/>
	</g>
	<g>
		<polygon class="st121" points="357.8,90.5 352.4,93.7 346.9,90.5 342.9,92.9 352.4,98.4 362,92.9 		"/>
		<polygon class="st121" points="352.4,92.4 356.8,89.9 352.4,87.4 348,89.9 		"/>
		<polygon class="st121" points="352.4,86.2 363,92.3 367.6,89.6 352.3,80.8 337.2,89.6 341.8,92.3 		"/>
	</g>
	<g>
		<polygon class="st121" points="213.4,178.3 172.6,178.2 213.6,201.9 		"/>
		<polygon class="st121" points="214.8,153.8 215,177.4 255.8,177.5 		"/>
		<polygon class="st121" points="213.4,177.4 213.3,153.8 172.6,177.3 		"/>
		<polygon class="st121" points="255.8,178.4 215,178.3 215.1,201.9 		"/>
		<path class="st121" d="M256.6,177.9L256.6,177.9L256.6,177.9z"/>
		<path class="st121" d="M214.3,202.3L214.3,202.3L214.3,202.3z"/>
	</g>
	<g>
		<polygon class="st121" points="259.1,204.8 218.2,204.7 259.2,228.4 		"/>
		<polygon class="st121" points="260.5,180.3 260.6,203.9 301.5,204 		"/>
		<polygon class="st121" points="259.1,203.9 259,180.3 218.2,203.8 		"/>
		<polygon class="st121" points="301.5,204.9 260.6,204.8 260.7,228.4 		"/>
		<path class="st121" d="M302.2,204.4L302.2,204.4L302.2,204.4z"/>
		<path class="st121" d="M260,228.8L260,228.8L260,228.8z"/>
	</g>
	<g class="st122">
		<g>
			<path d="M363.9,127.2l2.7-1.6l-11.8-6.8l-2.7,1.6L363.9,127.2z M347.2,121.7l-2.7,1.6l14,8.1l2.8-1.6L347.2,121.7z M375.8,134.1
				l2.7-1.6l-9.6-5.6l-2.7,1.6L375.8,134.1z M380.8,133.8l-2.7,1.6l11.6,6.6l2.8-1.6L380.8,133.8z M363.6,131.1l-2.7,1.6l3.7,2.1
				l2.8-1.6L363.6,131.1z M346.1,113.7l-20.3-11.6l-2.7,1.6l20.3,11.6L346.1,113.7z M349.8,119.1l2.8-1.6l-4.2-2.5l-2.7,1.6
				L349.8,119.1z M337.6,116.2l-2.7,1.6l7.4,4.3l2.7-1.6L337.6,116.2z M327.3,110.3l-2.7,1.6l8,4.6l2.7-1.6L327.3,110.3z
				 M366.8,136.2l10.1,5.8l2.7-1.6l-10.1-5.8L366.8,136.2z"/>
		</g>
	</g>
	<g>
		<g>
			
				<linearGradient id="SVGID_49_" gradientUnits="userSpaceOnUse" x1="323.1" y1="213.05" x2="392.5" y2="213.05" gradientTransform="matrix(1 0 0 -1 0 334)">
				<stop  offset="3.535350e-02" style="stop-color:#6B24D6"/>
				<stop  offset="0.316" style="stop-color:#7A1CD0"/>
				<stop  offset="0.8574" style="stop-color:#A306C1"/>
				<stop  offset="0.9848" style="stop-color:#AD00BD"/>
			</linearGradient>
			<path class="st123" d="M363.9,126.1l2.7-1.6l-11.8-6.8l-2.7,1.6L363.9,126.1z M347.2,120.6l-2.7,1.6l14,8.1l2.8-1.6L347.2,120.6z
				 M375.8,133l2.7-1.6l-9.6-5.6l-2.7,1.6L375.8,133z M380.8,132.7l-2.7,1.6l11.6,6.6l2.8-1.6L380.8,132.7z M363.6,130.1l-2.7,1.6
				l3.7,2.1l2.8-1.6L363.6,130.1z M346.1,112.6L325.8,101l-2.7,1.6l20.3,11.6L346.1,112.6z M349.8,118l2.8-1.6l-4.2-2.5l-2.7,1.6
				L349.8,118z M337.6,115.1l-2.7,1.6l7.4,4.3l2.7-1.6L337.6,115.1z M327.3,109.2l-2.7,1.6l8,4.6l2.7-1.6L327.3,109.2z M366.8,135.1
				l10.1,5.8l2.7-1.6l-10.1-5.8L366.8,135.1z"/>
		</g>
	</g>
	<g>
		<g class="st124">
			<path class="st125" d="M343.5,162.1c-2.8,0-5.4-0.6-7.3-1.7l-17.4-10l-17.4-10c-2.4-1.4-3.8-3.5-3.8-5.8c0-2.6,1.7-5.1,4.7-6.9
				c2.5-1.5,5.9-2.3,9.1-2.3c2.8,0,5.4,0.6,7.3,1.7l17.4,10l17.4,10c2.4,1.4,3.8,3.5,3.8,5.8c0,2.6-1.7,5.1-4.7,6.9
				C350.1,161.3,346.8,162.1,343.5,162.1z"/>
			<path class="st126" d="M303,127.8L303,127.8c2.5-1.4,5.7-2.2,8.9-2.2c2.4,0,4.5,0.4,6.3,1.3c0.3,0.1,0.6,0.3,0.8,0.4l17,9.7
				l1.4,0.8l15.5,9c1.3,0.7,2.4,1.9,3,2.9c0.4,0.8,0.7,1.7,0.8,2.6c0.1,2.5-1.6,5-4.5,6.7l0,0c-2.5,1.4-5.7,2.2-8.9,2.2
				c-2.4,0-4.5-0.4-6.3-1.3c-0.3-0.1-0.6-0.3-0.8-0.4l-16.9-9.8l-1.4-0.8l-15.5-9c-1.3-0.7-2.4-1.9-3-2.9c-0.4-0.8-0.7-1.7-0.8-2.6
				C298.4,131.9,300,129.5,303,127.8z"/>
			<path class="st127" d="M303.7,128L303.7,128c2.4-1.4,5.6-2.2,8.7-2.2c2.3,0,4.4,0.4,6.1,1.3c0.2,0.1,0.6,0.3,0.8,0.4l16.5,9.5
				l1.4,0.8l15.1,8.7c1.1,0.7,2.5,1.8,3,2.8c0.5,0.8,0.8,1.6,0.8,2.5c0.2,2.4-1.4,4.9-4.3,6.5l0,0c-2.4,1.4-5.6,2.2-8.7,2.2
				c-2.3,0-4.4-0.4-6.1-1.3c-0.2-0.1-0.6-0.3-0.8-0.4l-16.5-9.5l-1.4-0.8l-15.1-8.7c-1.1-0.7-2.5-1.8-3-2.8
				c-0.5-0.8-0.8-1.6-0.8-2.5C299.2,132.1,300.7,129.7,303.7,128z"/>
			<path class="st128" d="M304.3,128.2L304.3,128.2c2.4-1.4,5.4-2.1,8.4-2.1c2.2,0,4.3,0.4,5.9,1.2c0.2,0.1,0.6,0.3,0.8,0.4l16,9.3
				l1.3,0.8l14.7,8.5c1,0.6,2.5,1.8,3,2.7c0.5,0.8,0.8,1.5,0.9,2.4c0.3,2.3-1.2,4.7-4.1,6.4l0,0c-2.4,1.4-5.4,2.1-8.4,2.1
				c-2.2,0-4.3-0.4-5.9-1.2c-0.2-0.1-0.6-0.3-0.8-0.4l-16-9.3l-1.3-0.8l-14.7-8.5c-1-0.6-2.5-1.8-3-2.7c-0.5-0.8-0.8-1.5-0.9-2.4
				C300,132.2,301.4,129.8,304.3,128.2z"/>
			<path class="st129" d="M305,128.4L305,128.4c2.3-1.3,5.3-2.1,8.2-2c2.2,0,4.1,0.4,5.8,1.2c0.2,0.1,0.6,0.3,0.8,0.4l15.6,9
				l1.3,0.8L351,146c0.9,0.5,2.5,1.8,2.9,2.5c0.5,0.7,0.9,1.4,1,2.2c0.3,2.3-1,4.6-3.8,6.2l0,0c-2.3,1.3-5.3,2.1-8.2,2
				c-2.2,0-4.2-0.4-5.8-1.2c-0.2-0.1-0.6-0.3-0.8-0.4l-15.6-9l-1.3-0.8l-14.3-8.2c-0.9-0.5-2.5-1.8-2.9-2.5c-0.5-0.7-0.9-1.4-1-2.2
				C300.8,132.3,302.1,130,305,128.4z"/>
			<path class="st130" d="M305.6,128.6L305.6,128.6c2.2-1.3,5.1-2,7.9-2c2.1,0,4,0.4,5.6,1.2c0.2,0.1,0.6,0.3,0.7,0.4L335,137
				l1.3,0.7l13.8,8c0.8,0.4,2.5,1.8,2.9,2.4c0.5,0.7,0.9,1.4,1,2.1c0.4,2.2-0.9,4.4-3.6,6l0,0c-2.2,1.3-5.1,2-7.9,2
				c-2.1,0-4-0.4-5.6-1.2c-0.2-0.1-0.6-0.3-0.7-0.4l-15.1-8.7l-1.3-0.7l-13.8-8c-0.8-0.4-2.5-1.8-2.9-2.4c-0.5-0.7-0.9-1.4-1-2.1
				C301.6,132.5,302.8,130.2,305.6,128.6z"/>
			<path class="st131" d="M306.3,128.8L306.3,128.8c2.2-1.3,5-1.9,7.7-1.9c2,0,3.9,0.4,5.4,1.2c0.1,0.1,0.6,0.3,0.7,0.4l14.7,8.5
				l1.2,0.7l13.4,7.8c0.6,0.4,2.5,1.8,2.9,2.3c0.5,0.7,0.9,1.3,1.1,2c0.5,2.1-0.7,4.3-3.4,5.9l0,0c-2.2,1.3-5,1.9-7.7,1.9
				c-2,0-3.9-0.4-5.4-1.2c-0.1-0.1-0.6-0.3-0.7-0.4l-14.7-8.5l-1.2-0.7l-13.4-7.8c-0.6-0.4-2.5-1.8-2.9-2.3c-0.5-0.7-0.9-1.3-1.1-2
				C302.3,132.6,303.5,130.4,306.3,128.8z"/>
			<path class="st132" d="M306.9,129L306.9,129c2.1-1.2,4.8-1.9,7.5-1.8c2,0,3.8,0.4,5.2,1.2c0.1,0.1,0.6,0.3,0.7,0.4l14.2,8.2
				l1.2,0.7l13,7.5c0.5,0.3,2.5,1.7,2.8,2.1c0.5,0.7,1,1.2,1.2,1.9c0.6,2-0.5,4.1-3.2,5.7l0,0c-2.1,1.2-4.8,1.9-7.5,1.8
				c-2,0-3.8-0.4-5.2-1.2c-0.1-0.1-0.6-0.3-0.7-0.4l-14.2-8.2l-1.2-0.7l-13-7.5c-0.5-0.3-2.5-1.7-2.8-2.1c-0.5-0.7-1-1.2-1.2-1.9
				C303.1,132.7,304.2,130.6,306.9,129z"/>
			<path class="st133" d="M307.6,129.2L307.6,129.2c2-1.2,4.7-1.8,7.2-1.8c1.9,0,3.7,0.4,5.1,1.2c0.1,0,0.6,0.3,0.6,0.4l13.8,8
				l1.2,0.7l12.6,7.3c0.4,0.2,2.6,1.6,2.8,2c0.6,0.5,1,1.1,1.3,1.7c0.7,1.9-0.3,4-3,5.5l0,0c-2,1.2-4.7,1.8-7.2,1.8
				c-1.9,0-3.7-0.4-5.1-1.2c-0.1,0-0.6-0.3-0.6-0.4l-13.8-8l-1.2-0.7l-12.6-7.3c-0.4-0.2-2.6-1.6-2.8-2c-0.6-0.5-1-1.1-1.3-1.7
				C303.9,132.9,304.9,130.7,307.6,129.2z"/>
			<path class="st134" d="M308.2,129.4L308.2,129.4c2-1.1,4.6-1.7,7-1.7c1.8,0,3.5,0.5,4.9,1.1c0.1,0,0.6,0.3,0.6,0.3l13.3,7.7
				l1.1,0.7l12.2,7c0.3,0.1,2.7,1.6,2.8,1.8c0.6,0.5,1.1,1,1.3,1.6c0.8,1.8-0.1,3.9-2.7,5.4l0,0c-2,1.1-4.6,1.7-7,1.7
				c-1.8,0-3.5-0.5-4.9-1.1c-0.1,0-0.6-0.3-0.6-0.3l-13.3-7.7l-1.1-0.7l-12.2-7c-0.3-0.1-2.7-1.6-2.8-1.8c-0.6-0.5-1.1-1-1.3-1.6
				C304.7,133,305.6,130.9,308.2,129.4z"/>
			<path class="st135" d="M308.9,129.6L308.9,129.6c1.9-1.1,4.4-1.7,6.7-1.6c1.8,0,3.4,0.5,4.7,1.1l0.6,0.3l12.9,7.4l1.1,0.6
				l11.7,6.8c0.1,0.1,2.7,1.6,2.7,1.7c0.7,0.4,1.1,0.9,1.4,1.5c0.9,1.7,0,3.7-2.5,5.2l0,0c-1.9,1.1-4.4,1.7-6.7,1.6
				c-1.8,0-3.4-0.5-4.7-1.1l-0.6-0.3l-12.9-7.4l-1.1-0.6l-11.7-6.8c-0.1-0.1-2.7-1.6-2.7-1.7c-0.7-0.4-1.1-0.9-1.4-1.5
				C305.5,133.1,306.3,131.1,308.9,129.6z"/>
			<path class="st136" d="M336.8,152.4l-14-8.1l-14-8.1c-2.8-1.6-2.5-4.5,0.8-6.4l0,0c3.3-1.9,8.2-2.1,11.1-0.5l14,8.1l14,8.1
				c2.8,1.6,2.5,4.5-0.8,6.4l0,0C344.6,153.8,339.6,154.1,336.8,152.4z"/>
		</g>
		
			<linearGradient id="SVGID_50_" gradientUnits="userSpaceOnUse" x1="333.9077" y1="233.0156" x2="320.348" y2="162.1732" gradientTransform="matrix(1 0 0 -1 0 334)">
			<stop  offset="3.535350e-02" style="stop-color:#6B24D6"/>
			<stop  offset="0.316" style="stop-color:#7A1CD0"/>
			<stop  offset="0.8574" style="stop-color:#A306C1"/>
			<stop  offset="0.9848" style="stop-color:#AD00BD"/>
		</linearGradient>
		<path class="st137" d="M337.6,148.5l-34.8-20.1c-3.5-2-3.1-5.6,1-7.9l0,0c4.1-2.3,10.2-2.6,13.7-0.6l34.8,20.1
			c3.5,2,3.1,5.6-1,7.9l0,0C347.2,150.3,341.1,150.5,337.6,148.5z"/>
		<polygon class="st114" points="337,138.7 336.1,135.6 334.6,136.5 325.2,131 323.8,131.9 333.2,137.3 331.7,138.1 		"/>
		<path class="st114" d="M347.1,143.8L347.1,143.8l1.3-0.8c0.9-0.5,0.9-1.3,0-1.8l-1.1-0.6c-0.9-0.5-2.3-0.5-3.2,0l-1.4,0.8h-0.1
			c-0.4-0.2-1.1-0.2-1.5,0l-3.4,2c-0.4,0.2-0.4,0.6,0,0.9l4.4,2.5c0.4,0.2,1.1,0.2,1.5,0l3.4-2C347.5,144.4,347.5,144.1,347.1,143.8
			z M342.3,144.3l-0.8,0.5l-0.5-0.3l0.8-0.5c-0.1-0.2,0-0.4,0.2-0.5c0.4-0.2,0.9-0.2,1.3,0s0.4,0.5,0,0.7
			C343,144.4,342.6,144.4,342.3,144.3z M346.1,143.3l-2.4-1.4l1.1-0.6c0.5-0.3,1.3-0.3,1.8,0l0.6,0.4c0.5,0.3,0.5,0.8,0,1
			L346.1,143.3z"/>
	</g>
	<g>
		
			<linearGradient id="SVGID_51_" gradientUnits="userSpaceOnUse" x1="281.562" y1="149.1416" x2="294.9156" y2="116.8847" gradientTransform="matrix(1 0 0 -1 0 334)">
			<stop  offset="3.535350e-02" style="stop-color:#6B24D6"/>
			<stop  offset="0.316" style="stop-color:#7A1CD0"/>
			<stop  offset="0.8574" style="stop-color:#A306C1"/>
			<stop  offset="0.9848" style="stop-color:#AD00BD"/>
		</linearGradient>
		<path class="st138" d="M295.1,203c-1-0.6-2.5-0.8-3.8-0.5c0.4-0.8,0.1-1.6-0.9-2.2c-1.5-0.9-3.9-0.9-5.4,0c-2.7,1.6-1,6.4-1,6.4
			s8.4,1,11.1-0.6C296.6,205.3,296.6,203.9,295.1,203z"/>
	</g>
	<g>
		<g class="st0">
			<path class="st125" d="M196.9,247.5l-71.6-41.6c-4.6-2.7-4.7-9.3-0.2-12.1l90.2-57.4c2.2-1.4,5-1.4,7.3-0.1l76.2,44.3
				c4.7,2.7,4.7,9.5,0,12.2L204,247.5C201.8,248.8,199.1,248.8,196.9,247.5z"/>
			<path class="st126" d="M197.4,246.4l-70.1-40.7c-4.6-2.7-4.7-9.3-0.2-12.1l88.1-55.7c2.2-1.4,5-1.4,7.3-0.1l74.3,43.2
				c4.7,2.7,4.7,9.5,0,12.2l-92.3,53.2C202.3,247.7,199.6,247.7,197.4,246.4z"/>
			<path class="st127" d="M197.8,245.4l-68.5-39.8c-4.7-2.7-4.8-9.4-0.2-12.2l86.1-54c2.2-1.4,5-1.4,7.3-0.1l72.3,42.1
				c4.7,2.7,4.7,9.6,0,12.3L205,245.4C202.8,246.7,200,246.7,197.8,245.4z"/>
			<path class="st128" d="M198.3,244.3l-67-38.9c-4.7-2.7-4.8-9.5-0.2-12.3l84-52.4c2.2-1.4,5-1.4,7.3-0.1l70.4,40.9
				c4.8,2.7,4.8,9.6,0,12.4l-87.4,50.4C203.2,245.6,200.5,245.6,198.3,244.3z"/>
			<path class="st129" d="M198.7,243.3l-65.5-38c-4.7-2.7-4.8-9.5-0.1-12.4l82-50.7c2.2-1.4,5.1-1.4,7.3-0.1l68.4,39.8
				c4.8,2.8,4.8,9.7,0,12.4l-84.9,48.9C203.7,244.6,201,244.6,198.7,243.3z"/>
			<path class="st130" d="M199.2,242.2l-63.9-37.1c-4.8-2.7-4.8-9.6-0.1-12.4l79.9-49c2.3-1.4,5.1-1.4,7.4-0.1l66.4,38.6
				c4.8,2.8,4.8,9.7,0,12.5l-82.4,47.5C204.2,243.5,201.4,243.5,199.2,242.2z"/>
			<path class="st131" d="M199.6,241.2l-62.4-36.3c-4.8-2.8-4.9-9.7-0.1-12.5l77.8-47.3c2.3-1.4,5.1-1.4,7.4-0.1l64.5,37.5
				c4.8,2.8,4.8,9.8,0,12.6l-80,46.1C204.6,242.5,201.9,242.5,199.6,241.2z"/>
			<path class="st132" d="M200.1,240.1l-60.8-35.4c-4.8-2.8-4.9-9.7-0.1-12.6l75.8-45.6c2.3-1.4,5.1-1.4,7.4-0.1l62.5,36.4
				c4.9,2.8,4.9,9.8,0,12.6L207.4,240C205.1,241.4,202.3,241.4,200.1,240.1z"/>
			<path class="st133" d="M200.5,239l-59.3-34.5c-4.9-2.8-4.9-9.8-0.1-12.7l73.7-44c2.3-1.4,5.1-1.4,7.4,0l60.6,35.2
				c4.9,2.8,4.9,9.9,0,12.7l-75,43.2C205.6,240.4,202.8,240.4,200.5,239z"/>
			<path class="st134" d="M201,238l-57.8-33.6c-4.9-2.8-4.9-9.9-0.1-12.7l71.7-42.3c2.3-1.3,5.1-1.4,7.4,0l58.6,34.1
				c4.9,2.8,4.9,9.9,0,12.8L208.4,238C206.1,239.3,203.3,239.3,201,238z"/>
			<path class="st135" d="M201.4,236.9l-56.2-32.7c-4.9-2.8-4.9-9.9,0-12.8l69.6-40.6c2.3-1.3,5.1-1.4,7.4,0l56.6,33
				c4.9,2.8,4.9,10,0,12.8l-70,40.3C206.5,238.3,203.7,238.3,201.4,236.9z"/>
			<path class="st136" d="M201.9,235.9l-54.7-31.8c-5-2.9-5-10,0-12.9l67.6-38.9c2.3-1.3,5.2-1.3,7.5,0l54.7,31.8c5,2.9,5,10,0,12.9
				l-67.6,38.9C207,237.2,204.2,237.2,201.9,235.9z"/>
		</g>
		
			<linearGradient id="SVGID_52_" gradientUnits="userSpaceOnUse" x1="-4627.2065" y1="-1472.9358" x2="-4472.4399" y2="-1472.9358" gradientTransform="matrix(0.866 0.5 1 -0.5774 5607.6738 1596.7306)">
			<stop  offset="0" style="stop-color:#2D085D"/>
			<stop  offset="1" style="stop-color:#410F82"/>
		</linearGradient>
		<polygon class="st139" points="202.6,235.1 115.8,184.6 216.4,126.7 303.2,177.1 		"/>
		<polygon class="st140" points="202.6,234 117.3,183.7 115.8,184.6 202.6,235.1 303.2,177.2 301.6,177 		"/>
		<path class="st141" d="M188.4,200.4l-7.1-4.1l-2,1.2l7.1,4.1L188.4,200.4z M190.7,198.6l7.5,4.3l2-1.2l-7.5-4.3L190.7,198.6z
			 M201.9,199.6l3.3,1.9l2-1.2l-3.3-1.9L201.9,199.6z M193,205.4l7.1,4.1l2-1.2l-7.1-4.1L193,205.4z M199.8,203.9l3.2,1.8l2-1.2
			l-3.2-1.8L199.8,203.9z M158.2,179.8l4.1,2.4l2-1.2l-4.1-2.4L158.2,179.8z M169.2,189.2l-2.5-1.5l-2,1.2l2.5,1.5L169.2,189.2z
			 M171.5,185.1L166,182l-2,1.2l5.5,3.2L171.5,185.1z M183.6,192.1l-10.4-6l-2,1.2l10.4,6L183.6,192.1z M185.6,204.2l-7.5-4.3
			l-2,1.2l7.5,4.3L185.6,204.2z M165.4,178.6l11.4,6.6l2-1.2l-11.4-6.6L165.4,178.6z M193.1,194.5l7.1,4.1l2-1.2l-7.1-4.1
			L193.1,194.5z M185.8,212l2-1.2l-2.8-1.6l-2,1.2L185.8,212z M200.4,212.7l-13.1-7.6l-2,1.2l13.1,7.6L200.4,212.7z M193.4,192.4
			l-8.7-5l-2,1.2l8.7,5L193.4,192.4z M167.4,193.7l-8.8-5.1l-2,1.2l8.8,5.1L167.4,193.7z M191,196.4l-5.8-3.3l-2,1.2l5.8,3.3
			L191,196.4z M156.9,187.6l-5.5-3.2l-2,1.2l5.5,3.2L156.9,187.6z M151.6,181.4L163,188l2-1.2l-11.4-6.6L151.6,181.4z M159.9,194.7
			l-11.4-6.6l-2,1.2l11.4,6.6L159.9,194.7z M179.6,195.3l-8.7-5l-2,1.2l8.7,5L179.6,195.3z M183.3,208.3l-7.1-4.1l-2,1.2l7.1,4.1
			L183.3,208.3z M163.7,199.3l8.7,5l2-1.2l-8.7-5L163.7,199.3z M176.5,198.9l-7.4-4.2l-2,1.2l7.4,4.2L176.5,198.9z M159.5,196.9
			l2.5,1.5l2-1.2l-2.5-1.5L159.5,196.9z M219.3,207.3l-2,1.2l9.1,5.2l2-1.2L219.3,207.3z M209.9,215.1l7.1,4l2-1.2l-7.1-4
			L209.9,215.1z M200.2,215l12,6.9l2-1.2l-12-6.9L200.2,215z M165.8,176.4l-10.6-6l-2,1.2l10.6,6L165.8,176.4z M206.8,202.5l8.7,5
			l2-1.2l-8.7-5L206.8,202.5z M178.4,186.1l2.5,1.5l2-1.2l-2.5-1.5L178.4,186.1z M223.5,215.2l-17.1-9.8l-2,1.2l17.1,9.8
			L223.5,215.2z M210.6,213.2l-6.7-3.9l-2,1.2l6.7,3.9L210.6,213.2z M193.4,203.2l-3.3-1.9l-2,1.2l3.3,1.9L193.4,203.2z
			 M158.5,177.7l-8-4.6l-2,1.2l8,4.6L158.5,177.7z M146.9,187.2l-10.5-6l-2,1.2l10.5,6L146.9,187.2z M149.8,183.5l-8.7-4.9l-2,1.2
			l8.7,4.9L149.8,183.5z M151.9,179.3l-6.2-3.5l-2,1.2l6.2,3.5L151.9,179.3z"/>
		<g>
			<polygon class="st142" points="287.7,178.4 279,173.4 276.9,174.5 285.7,179.6 			"/>
			<polygon class="st142" points="264.2,164.8 257.9,161.1 255.8,162.3 262.2,166 			"/>
			<polygon class="st142" points="262.9,169.4 253.2,163.8 251.1,165 260.9,170.6 			"/>
			<polygon class="st142" points="277.3,172.3 265.9,165.8 263.9,166.9 275.2,173.5 			"/>
			<polygon class="st142" points="275.8,176.9 270.4,173.7 268.3,174.9 273.8,178.1 			"/>
			<polygon class="st142" points="264.6,170.4 262.5,171.6 266.6,174 268.7,172.8 			"/>
		</g>
		<g class="st124">
			<polygon class="st142" points="244.1,175.5 248.2,177.9 250.2,176.7 246.1,174.4 			"/>
			<polygon class="st142" points="255.1,185 252.6,183.5 250.6,184.7 253.1,186.2 			"/>
			<polygon class="st142" points="257.4,180.9 251.9,177.7 249.9,178.9 255.4,182 			"/>
			<polygon class="st142" points="251.3,174.3 262.7,180.8 264.7,179.7 253.4,173.1 			"/>
			<polygon class="st142" points="237.5,177.2 248.9,183.7 250.9,182.5 239.6,176 			"/>
			<polygon class="st142" points="251.7,172.1 245.2,168.4 243.2,169.6 249.7,173.3 			"/>
			<polygon class="st142" points="264.4,181.8 266.9,183.3 268.9,182.1 266.4,180.6 			"/>
			<polygon class="st142" points="244.5,173.4 240.5,171.1 238.5,172.3 242.4,174.6 			"/>
			<polygon class="st142" points="237.9,175 235.8,173.8 233.8,175 235.8,176.2 			"/>
		</g>
		<g>
			
				<linearGradient id="SVGID_53_" gradientUnits="userSpaceOnUse" x1="175.5795" y1="209.0232" x2="230.6406" y2="113.888" gradientTransform="matrix(1 0 0 -1 0 334)">
				<stop  offset="3.535350e-02" style="stop-color:#6B24D6"/>
				<stop  offset="0.316" style="stop-color:#7A1CD0"/>
				<stop  offset="0.8574" style="stop-color:#A306C1"/>
				<stop  offset="0.9848" style="stop-color:#AD00BD"/>
			</linearGradient>
			<polygon class="st143" points="214.5,159.1 176.1,159 214.6,181.3 			"/>
			
				<linearGradient id="SVGID_54_" gradientUnits="userSpaceOnUse" x1="205.6964" y1="226.4538" x2="260.7575" y2="131.3186" gradientTransform="matrix(1 0 0 -1 0 334)">
				<stop  offset="3.535350e-02" style="stop-color:#6B24D6"/>
				<stop  offset="0.316" style="stop-color:#7A1CD0"/>
				<stop  offset="0.8574" style="stop-color:#A306C1"/>
				<stop  offset="0.9848" style="stop-color:#AD00BD"/>
			</linearGradient>
			<polygon class="st144" points="215.8,136.1 215.9,158.3 254.3,158.4 			"/>
			
				<linearGradient id="SVGID_55_" gradientUnits="userSpaceOnUse" x1="180.7013" y1="211.9875" x2="235.7623" y2="116.8523" gradientTransform="matrix(1 0 0 -1 0 334)">
				<stop  offset="3.535350e-02" style="stop-color:#6B24D6"/>
				<stop  offset="0.316" style="stop-color:#7A1CD0"/>
				<stop  offset="0.8574" style="stop-color:#A306C1"/>
				<stop  offset="0.9848" style="stop-color:#AD00BD"/>
			</linearGradient>
			<polygon class="st145" points="214.5,158.3 214.4,136.1 176.1,158.2 			"/>
			
				<linearGradient id="SVGID_56_" gradientUnits="userSpaceOnUse" x1="200.6121" y1="223.5114" x2="255.6732" y2="128.3761" gradientTransform="matrix(1 0 0 -1 0 334)">
				<stop  offset="3.535350e-02" style="stop-color:#6B24D6"/>
				<stop  offset="0.316" style="stop-color:#7A1CD0"/>
				<stop  offset="0.8574" style="stop-color:#A306C1"/>
				<stop  offset="0.9848" style="stop-color:#AD00BD"/>
			</linearGradient>
			<polygon class="st146" points="254.3,159.2 215.9,159.1 216.1,181.3 			"/>
			
				<linearGradient id="SVGID_57_" gradientUnits="userSpaceOnUse" x1="255" y1="175.2" x2="255" y2="175.2" gradientTransform="matrix(1 0 0 -1 0 334)">
				<stop  offset="3.535350e-02" style="stop-color:#6B24D6"/>
				<stop  offset="0.316" style="stop-color:#7A1CD0"/>
				<stop  offset="0.8574" style="stop-color:#A306C1"/>
				<stop  offset="0.9848" style="stop-color:#AD00BD"/>
			</linearGradient>
			<path class="st147" d="M255,158.8L255,158.8L255,158.8z"/>
			
				<linearGradient id="SVGID_58_" gradientUnits="userSpaceOnUse" x1="215.3" y1="152.3" x2="215.3" y2="152.3" gradientTransform="matrix(1 0 0 -1 0 334)">
				<stop  offset="3.535350e-02" style="stop-color:#6B24D6"/>
				<stop  offset="0.316" style="stop-color:#7A1CD0"/>
				<stop  offset="0.8574" style="stop-color:#A306C1"/>
				<stop  offset="0.9848" style="stop-color:#AD00BD"/>
			</linearGradient>
			<path class="st148" d="M215.3,181.7L215.3,181.7L215.3,181.7z"/>
		</g>
		<g>
			
				<linearGradient id="SVGID_59_" gradientUnits="userSpaceOnUse" x1="224.3583" y1="170.0504" x2="237.7121" y2="137.7933" gradientTransform="matrix(1 0 0 -1 0 334)">
				<stop  offset="3.535350e-02" style="stop-color:#6B24D6"/>
				<stop  offset="0.316" style="stop-color:#7A1CD0"/>
				<stop  offset="0.8574" style="stop-color:#A306C1"/>
				<stop  offset="0.9848" style="stop-color:#AD00BD"/>
			</linearGradient>
			<path class="st149" d="M237.9,182.1c-1-0.6-2.5-0.8-3.8-0.5c0.4-0.8,0.1-1.6-0.9-2.2c-1.5-0.9-3.9-0.9-5.4,0
				c-2.7,1.6-1,6.4-1,6.4s8.4,1,11.1-0.6C239.4,184.4,239.4,183,237.9,182.1z"/>
		</g>
		<g>
			<polygon class="st150" points="223.4,159.5 215.2,164.2 207,159.5 200.9,163 215.3,171.4 229.6,163.1 			"/>
			<polygon class="st150" points="215.2,162.4 221.8,158.6 215.2,154.8 208.6,158.6 			"/>
			<polygon class="st150" points="215.2,153 231.2,162.2 238.1,158.2 215.1,144.9 192.3,158.1 199.3,162.1 			"/>
		</g>
	</g>
	<g>
		<g class="st0">
			<path class="st125" d="M253.8,174.4l-65-37.5c-6.7-3.9-6.7-13.6,0-17.5l80.5-46.6c3.1-1.8,7-1.8,10.1,0l65,37.5
				c6.7,3.9,6.7,13.6,0,17.5l-80.5,46.6C260.8,176.2,256.9,176.2,253.8,174.4z"/>
			<path class="st126" d="M254.3,173.5L190,136.3c-6.6-3.8-6.6-13.3,0-17.1l79-45.8c3.1-1.8,6.8-1.8,9.9,0l64.3,37.1
				c6.6,3.8,6.6,13.3,0,17.1l-79,45.8C261.1,175.2,257.3,175.2,254.3,173.5z"/>
			<path class="st127" d="M254.7,172.5l-63.6-36.7c-6.4-3.7-6.4-12.9,0-16.6l77.5-44.9c3-1.7,6.6-1.7,9.6,0l63.6,36.7
				c6.4,3.7,6.4,12.9,0,16.6l-77.5,44.9C261.4,174.2,257.7,174.2,254.7,172.5z"/>
			<path class="st128" d="M255.2,171.5l-62.9-36.3c-6.2-3.6-6.2-12.6,0-16.2l76-44c2.9-1.7,6.5-1.7,9.4,0l62.9,36.3
				c6.2,3.6,6.2,12.6,0,16.2l-76,44C261.6,173.2,258.1,173.2,255.2,171.5z"/>
			<path class="st129" d="M255.6,170.5l-62.2-35.9c-6.1-3.5-6.1-12.2,0-15.7L268,75.7c2.8-1.6,6.3-1.6,9.1,0l62.2,35.9
				c6.1,3.5,6.1,12.2,0,15.7l-74.6,43.2C261.9,172.1,258.4,172.1,255.6,170.5z"/>
			<path class="st130" d="M256.1,169.5L194.5,134c-5.9-3.4-5.9-11.9,0-15.3l73.1-42.3c2.7-1.6,6.1-1.6,8.9,0l61.6,35.5
				c5.9,3.4,5.9,11.9,0,15.3L265,169.5C262.2,171.1,258.8,171.1,256.1,169.5z"/>
			<path class="st131" d="M256.5,168.6l-60.9-35.2c-5.7-3.3-5.7-11.5,0-14.8l71.6-41.5c2.7-1.5,5.9-1.5,8.6,0l60.9,35.2
				c5.7,3.3,5.7,11.5,0,14.8l-71.6,41.5C262.5,170.1,259.2,170.1,256.5,168.6z"/>
			<path class="st132" d="M257,167.6l-60.2-34.8c-5.5-3.2-5.6-11.2,0-14.4l70.1-40.6c2.6-1.5,5.8-1.5,8.3,0l60.2,34.8
				c5.5,3.2,5.6,11.2,0,14.4l-70.1,40.6C262.7,169.1,259.5,169.1,257,167.6z"/>
			<path class="st133" d="M257.4,166.6l-59.5-34.4c-5.4-3.1-5.4-10.8,0-14l68.6-39.8c2.5-1.5,5.6-1.5,8.1,0l59.5,34.4
				c5.4,3.1,5.4,10.8,0,14l-68.6,39.8C263,168,259.9,168,257.4,166.6z"/>
			<path class="st134" d="M257.9,165.6l-58.9-34c-5.2-3-5.2-10.5,0-13.5l67.1-38.9c2.4-1.4,5.4-1.4,7.8,0l58.9,34
				c5.2,3,5.2,10.5,0,13.5l-67.1,38.9C263.3,167,260.3,167,257.9,165.6z"/>
			<path class="st135" d="M258.3,164.6L200.1,131c-5-2.9-5-10.2,0-13.1l65.6-38c2.3-1.4,5.2-1.4,7.6,0l58.2,33.6
				c5,2.9,5,10.2,0,13.1l-65.6,38C263.5,166,260.7,166,258.3,164.6z"/>
			<path class="st136" d="M258.8,163.7l-57.5-33.2c-4.9-2.8-4.9-9.8,0-12.6l64.1-37.2c2.3-1.3,5.1-1.3,7.3,0l57.5,33.2
				c4.9,2.8,4.9,9.8,0,12.6l-64.1,37.2C263.8,165,261,165,258.8,163.7z"/>
		</g>
		
			<linearGradient id="SVGID_60_" gradientUnits="userSpaceOnUse" x1="200.3226" y1="340.8329" x2="334.7249" y2="86.7436" gradientTransform="matrix(1 0 0 -1 0 334)">
			<stop  offset="3.535350e-02" style="stop-color:#6B24D6"/>
			<stop  offset="0.316" style="stop-color:#7A1CD0"/>
			<stop  offset="0.8574" style="stop-color:#A306C1"/>
			<stop  offset="0.9848" style="stop-color:#AD00BD"/>
		</linearGradient>
		<polygon class="st151" points="260,163.3 177.8,115.9 268,63.8 350.2,111.2 		"/>
		
			<linearGradient id="SVGID_61_" gradientUnits="userSpaceOnUse" x1="304.9037" y1="284.6555" x2="303.5284" y2="173.2516" gradientTransform="matrix(1 0 0 -1 0 334)">
			<stop  offset="0" style="stop-color:#2D085D"/>
			<stop  offset="1" style="stop-color:#410F82"/>
		</linearGradient>
		<polygon class="st152" points="337,118.7 254.9,71.3 271.7,61.6 353.9,109 		"/>
		<polygon class="st114" points="303.9,124.8 243.3,89.9 256,82.8 316.5,117.7 		"/>
		<polygon class="st114" points="286,135.3 225.4,100.4 238.1,93.3 298.6,128.2 		"/>
		
			<linearGradient id="SVGID_62_" gradientUnits="userSpaceOnUse" x1="248.5738" y1="238.3461" x2="244.4923" y2="150.8856" gradientTransform="matrix(1 0 0 -1 0 334)">
			<stop  offset="0" style="stop-color:#2D085D"/>
			<stop  offset="1" style="stop-color:#410F82"/>
		</linearGradient>
		<path class="st153" d="M255.9,150.7l-31.4-18.1c-3-1.8-2.7-4.8,0.9-6.9l0,0c3.5-2,8.8-2.3,11.9-0.5l31.4,18.1
			c3,1.8,2.7,4.8-0.9,6.9l0,0C264.2,152.2,258.9,152.4,255.9,150.7z"/>
		<polygon class="st120" points="284.1,146 207.2,101.6 207.9,101.3 284.8,145.7 		"/>
		<path class="st141" d="M336.9,108.7h4.2c0.4,0,0.7-0.2,0.7-0.4c0-0.2-0.3-0.4-0.7-0.4h-4.2v-2.4c0-0.2-0.3-0.4-0.7-0.4
			c-0.4,0-0.7,0.2-0.7,0.4v2.4h-4.2c-0.4,0-0.7,0.2-0.7,0.4c0,0.1,0.1,0.2,0.2,0.3c0.1,0.1,0.3,0.1,0.5,0.1h4.2v2.4
			c0,0.1,0.1,0.2,0.2,0.3c0.1,0.1,0.3,0.1,0.5,0.1c0.4,0,0.7-0.2,0.7-0.4V108.7z"/>
		<polygon class="st140" points="260,162.5 179,115.2 177.8,115.9 260,163.3 353.7,109.1 352.5,108.9 		"/>
		<polygon class="st154" points="254.5,142 253.5,138.9 252.1,139.8 242.7,134.3 241.2,135.2 250.6,140.6 249.2,141.5 		"/>
		<g>
			<polygon class="st154" points="262.7,145.9 260.4,147.2 258.1,145.9 256.4,146.9 260.4,149.3 264.5,146.9 			"/>
			<polygon class="st154" points="260.4,146.7 262.3,145.7 260.4,144.6 258.6,145.6 			"/>
			<polygon class="st154" points="260.4,144.1 264.9,146.7 266.9,145.5 260.4,141.8 254,145.5 255.9,146.7 			"/>
		</g>
		<path class="st155" d="M257.4,92.4c-0.3-0.3-0.5-0.7-0.6-1.1c0-0.2,0.3-0.4,0.7-0.4c0.5,0,1-0.1,1.5-0.2c0.3,0.1,0.7,0.1,1,0
			s0.3-0.3,0.2-0.5c1-0.6,1.5-1.4,0-2.2c-1.4-0.8-2.8-0.6-3.9,0c-0.2-0.1-0.6,0-0.8,0.1s-0.2,0.4,0,0.6c-0.2,0.3-0.3,0.6-0.3,0.9
			c0,0.2-0.3,0.4-0.7,0.4c-0.6,0-1.3-0.1-1.8-0.3c-0.7-0.3-1.7-0.2-2.4,0.2l-1.1,0.6c-0.2,0.1-0.2,0.3,0,0.5l6,3.5
			c0.2,0.1,0.6,0.1,0.8,0l1.1-0.6C257.8,93.4,257.9,92.9,257.4,92.4z"/>
		<path class="st155" d="M242,101.5L242,101.5l1.3-0.8c0.9-0.5,0.9-1.3,0-1.8l-1.1-0.6c-0.9-0.5-2.3-0.5-3.2,0l-1.4,0.8h-0.1
			c-0.4-0.2-1.1-0.2-1.5,0l-3.4,2c-0.4,0.2-0.4,0.6,0,0.9l4.4,2.5c0.4,0.2,1.1,0.2,1.5,0l3.4-2C242.4,102.1,242.4,101.7,242,101.5z
			 M237.2,102l-0.8,0.5l-0.5-0.3l0.8-0.5c-0.1-0.2,0-0.4,0.2-0.5c0.4-0.2,0.9-0.2,1.3,0c0.4,0.2,0.4,0.5,0,0.7
			C237.9,102.1,237.6,102.1,237.2,102z M241,100.9l-2.4-1.4l1.1-0.6c0.5-0.3,1.3-0.3,1.8,0l0.6,0.4c0.5,0.3,0.5,0.8,0,1L241,100.9z"
			/>
	</g>
	<g>
		<g class="st0">
			<path class="st125" d="M351.4,141.8l-80.8-47.3c-3.8-2.2-3.9-7.7-0.2-10.1L292.7,67c1.8-1.2,4.2-1.2,6.1-0.1l84.7,49.6
				c3.9,2.3,3.9,7.9,0,10.2l-26.2,15.1C355.5,142.9,353.2,142.9,351.4,141.8z"/>
			<path class="st126" d="M351.8,140.9l-79.5-46.5c-3.9-2.2-4-7.8-0.2-10.2l20.6-16c1.9-1.2,4.2-1.2,6.1-0.1l83,48.6
				c3.9,2.3,3.9,8,0,10.2l-24.1,13.9C355.9,142,353.6,142,351.8,140.9z"/>
			<path class="st127" d="M352.1,140l-78.2-45.8c-3.9-2.3-4-7.8-0.2-10.2l18.9-14.6c1.9-1.2,4.2-1.2,6.1-0.1l81.4,47.7
				c4,2.3,4,8,0,10.3l-22,12.7C356.3,141.1,354,141.1,352.1,140z"/>
			<path class="st128" d="M352.5,139.2l-76.9-45c-3.9-2.3-4-7.9-0.1-10.3l17.1-13.2c1.9-1.1,4.2-1.2,6.1-0.1l79.8,46.7
				c4,2.3,4,8,0,10.3l-20,11.5C356.7,140.2,354.4,140.2,352.5,139.2z"/>
			<path class="st129" d="M352.9,138.3L277.3,94c-4-2.3-4-8-0.1-10.3l15.4-11.8c1.9-1.1,4.2-1.2,6.1-0.1l78.1,45.8
				c4,2.3,4,8.1,0,10.4l-17.9,10.3C357.1,139.4,354.8,139.4,352.9,138.3z"/>
			<path class="st130" d="M353.3,137.4l-74.4-43.6c-4-2.3-4-8-0.1-10.4L292.5,73c1.9-1.1,4.2-1.2,6.1-0.1l76.5,44.8
				c4,2.3,4,8.1,0,10.5l-15.8,9.1C357.5,138.5,355.1,138.5,353.3,137.4z"/>
			<path class="st131" d="M353.6,136.5l-73.1-42.8c-4-2.3-4.1-8.1-0.1-10.5l12-9c1.9-1.1,4.3-1.2,6.2-0.1l74.8,43.9
				c4,2.3,4,8.2,0,10.5l-13.8,7.9C357.9,137.6,355.5,137.6,353.6,136.5z"/>
			<path class="st132" d="M354,135.6l-71.8-42.1c-4-2.3-4.1-8.1-0.1-10.5l10.3-7.5c1.9-1.1,4.3-1.2,6.2,0l73.2,42.9
				c4.1,2.3,4.1,8.2,0,10.6l-11.7,6.7C358.3,136.7,355.9,136.7,354,135.6z"/>
			<path class="st133" d="M354.4,134.8l-70.5-41.3c-4.1-2.3-4.1-8.2-0.1-10.6l8.6-6.1c1.9-1.1,4.3-1.1,6.2,0l71.6,42
				c4.1,2.4,4.1,8.2,0,10.6l-9.6,5.5C358.6,135.8,356.3,135.8,354.4,134.8z"/>
			<path class="st134" d="M354.8,133.9l-69.2-40.6c-4.1-2.4-4.1-8.3,0-10.6l6.8-4.7c1.9-1.1,4.3-1.1,6.2,0l69.9,41
				c4.1,2.4,4.1,8.3,0,10.7L361,134C359,135,356.7,135,354.8,133.9z"/>
			<path class="st135" d="M355.1,133l-67.9-39.8c-4.1-2.4-4.1-8.3,0-10.7l5.1-3.3c1.9-1.1,4.3-1.1,6.2,0l68.3,40
				c4.1,2.4,4.1,8.3,0,10.7l-5.5,3.1C359.4,134.1,357.1,134.1,355.1,133z"/>
			<path class="st136" d="M355.5,132.1L288.9,93c-4.1-2.4-4.2-8.4,0-10.8l3.4-1.9c1.9-1.1,4.3-1.1,6.2,0l66.6,39.1
				c4.1,2.4,4.2,8.4,0,10.8l-3.4,1.9C359.8,133.2,357.5,133.2,355.5,132.1z"/>
		</g>
		
			<linearGradient id="SVGID_63_" gradientUnits="userSpaceOnUse" x1="-4638.5845" y1="-1343.3331" x2="-4483.9365" y2="-1343.3331" gradientTransform="matrix(0.866 0.5 1 -0.5774 5607.6738 1596.7306)">
			<stop  offset="0" style="stop-color:#2D085D"/>
			<stop  offset="1" style="stop-color:#410F82"/>
		</linearGradient>
		<polygon class="st156" points="357.7,134.2 270.8,83.7 300.7,66.5 387.6,117 		"/>
		<polygon class="st140" points="357.7,133.1 272.3,82.8 270.8,83.7 357.7,134.2 387.5,117 386,116.8 		"/>
		<polygon class="st114" points="359.2,123.9 288.9,83.2 301.6,76.1 371.9,116.8 		"/>
		<path class="st155" d="M360.6,121.1v-2.4c0-0.2-0.3-0.5-0.7-0.5v-0.7c2.1-0.2,3.7-1.2,3.7-2.4c0-1.4-1.9-2.5-4.3-2.5
			s-4.3,1.1-4.3,2.5c0,1.2,1.6,2.3,3.7,2.5v0.7c-0.4,0.1-0.7,0.3-0.7,0.5v2.4c0,0.3,0.4,0.5,0.9,0.5h0.7
			C360.2,121.7,360.6,121.4,360.6,121.1z M359.3,116.7c-1.6,0-2.8-0.7-2.8-1.6s1.3-1.6,2.8-1.6c1.6,0,2.8,0.7,2.8,1.6
			C362.1,116,360.8,116.7,359.3,116.7z"/>
	</g>
	<g>
		<g>
			<path class="st157" d="M201.2,75.7l-3.5,0.3l0,0l2.8,1.2l-1.1,0.6l-2.1-1.6l0,0l-0.4,2l-1.6-0.3l1.3-1.9l0,0l-3.3,0.7l-0.3-0.9
				l3.5-0.2l0,0l-2.7-1.2l1.1-0.6l2.1,1.5l0,0l0.4-2l1.5,0.2l-1.2,1.9l0,0l3.2-0.7L201.2,75.7z"/>
			<path class="st158" d="M207.9,79.5l-3.5,0.3l0,0l2.8,1.2l-1.1,0.6L204,80l0,0l-0.4,2l-1.6-0.3l1.3-1.9l0,0l-3.3,0.7l-0.3-0.9
				l3.5-0.2l0,0l-2.7-1.2l1.1-0.6l2.1,1.5l0,0l0.4-2l1.5,0.2l-1.2,1.9l0,0l3.2-0.7L207.9,79.5z"/>
			<path class="st159" d="M214.6,83.4l-3.5,0.3l0,0l2.8,1.2l-1.1,0.6l-2.1-1.6l0,0l-0.4,2l-1.6-0.3l1.3-1.9l0,0l-3.3,0.7l-0.3-0.9
				l3.5-0.2l0,0l-2.7-1.2l1.1-0.6l2.1,1.5l0,0l0.4-2l1.5,0.2l-1.2,1.9l0,0l3.2-0.7L214.6,83.4z"/>
			<path class="st160" d="M221.3,87.3l-3.5,0.3l0,0l2.8,1.2l-1.1,0.6l-2.1-1.6l0,0l-0.4,2l-1.6-0.3l1.3-1.9l0,0l-3.3,0.7l-0.3-0.9
				l3.5-0.2l0,0l-2.7-1.2l1.1-0.6l2.1,1.5l0,0l0.4-2l1.5,0.2l-1.2,1.9l0,0l3.2-0.7L221.3,87.3z"/>
			<path class="st155" d="M227.9,91.1l-3.5,0.3l0,0l2.8,1.2l-1.1,0.6l-2.1-1.6l0,0l-0.4,2l-1.6-0.3l1.3-1.9l0,0l-3.3,0.7l-0.3-0.9
				l3.5-0.2l0,0l-2.7-1.2l1.1-0.6l2.1,1.5l0,0l0.4-2l1.5,0.2l-1.2,1.9l0,0l3.2-0.7L227.9,91.1z"/>
		</g>
	</g>
	<g>
		
			<linearGradient id="SVGID_64_" gradientUnits="userSpaceOnUse" x1="158.0781" y1="190.9197" x2="222.0718" y2="125.6252" gradientTransform="matrix(1 0 0 -1 0 334)">
			<stop  offset="3.535350e-02" style="stop-color:#9F19AB"/>
			<stop  offset="0.2438" style="stop-color:#AE25B1"/>
			<stop  offset="0.6455" style="stop-color:#D744BF"/>
			<stop  offset="1" style="stop-color:#FF63CE"/>
		</linearGradient>
		<polygon class="st161" points="196.2,178 185.8,172 183.7,173.2 194.1,179.2 		"/>
		
			<linearGradient id="SVGID_65_" gradientUnits="userSpaceOnUse" x1="152.1325" y1="185.0924" x2="216.1264" y2="119.7978" gradientTransform="matrix(1 0 0 -1 0 334)">
			<stop  offset="3.535350e-02" style="stop-color:#9F19AB"/>
			<stop  offset="0.2438" style="stop-color:#AE25B1"/>
			<stop  offset="0.6455" style="stop-color:#D744BF"/>
			<stop  offset="1" style="stop-color:#FF63CE"/>
		</linearGradient>
		<polygon class="st162" points="171.1,163.6 157.3,155.7 155.3,156.8 169.1,164.8 		"/>
		
			<linearGradient id="SVGID_66_" gradientUnits="userSpaceOnUse" x1="159.8862" y1="192.6926" x2="223.8806" y2="127.3974" gradientTransform="matrix(1 0 0 -1 0 334)">
			<stop  offset="3.535350e-02" style="stop-color:#9F19AB"/>
			<stop  offset="0.2438" style="stop-color:#AE25B1"/>
			<stop  offset="0.6455" style="stop-color:#D744BF"/>
			<stop  offset="1" style="stop-color:#FF63CE"/>
		</linearGradient>
		<polygon class="st163" points="197.9,179 195.8,180.2 198.5,181.8 200.6,180.6 		"/>
		
			<linearGradient id="SVGID_67_" gradientUnits="userSpaceOnUse" x1="155.9312" y1="188.8151" x2="219.9247" y2="123.5209" gradientTransform="matrix(1 0 0 -1 0 334)">
			<stop  offset="3.535350e-02" style="stop-color:#9F19AB"/>
			<stop  offset="0.2438" style="stop-color:#AE25B1"/>
			<stop  offset="0.6455" style="stop-color:#D744BF"/>
			<stop  offset="1" style="stop-color:#FF63CE"/>
		</linearGradient>
		<polygon class="st164" points="184.1,171.1 178.6,167.9 176.6,169.1 182,172.2 		"/>
		
			<linearGradient id="SVGID_68_" gradientUnits="userSpaceOnUse" x1="154.5153" y1="187.4276" x2="218.5091" y2="122.1332" gradientTransform="matrix(1 0 0 -1 0 334)">
			<stop  offset="3.535350e-02" style="stop-color:#9F19AB"/>
			<stop  offset="0.2438" style="stop-color:#AE25B1"/>
			<stop  offset="0.6455" style="stop-color:#D744BF"/>
			<stop  offset="1" style="stop-color:#FF63CE"/>
		</linearGradient>
		<polygon class="st165" points="172.8,164.6 170.8,165.7 174.9,168.1 176.9,166.9 		"/>
		
			<linearGradient id="SVGID_69_" gradientUnits="userSpaceOnUse" x1="161.3801" y1="194.1555" x2="225.3737" y2="128.8612" gradientTransform="matrix(1 0 0 -1 0 334)">
			<stop  offset="3.535350e-02" style="stop-color:#9F19AB"/>
			<stop  offset="0.2438" style="stop-color:#AE25B1"/>
			<stop  offset="0.6455" style="stop-color:#D744BF"/>
			<stop  offset="1" style="stop-color:#FF63CE"/>
		</linearGradient>
		<polygon class="st166" points="200.2,182.7 207.7,187 209.7,185.9 202.3,181.6 		"/>
	</g>
	<g class="st167">
		<polygon points="202.7,188 192.3,182 190.2,183.2 200.6,189.2 		"/>
		<polygon points="177.7,173.6 163.8,165.6 161.8,166.8 175.6,174.7 		"/>
		<polygon points="204.4,189 202.3,190.2 205,191.7 207.1,190.6 		"/>
		<polygon points="190.6,181 185.1,177.9 183.1,179 188.5,182.2 		"/>
		<polygon points="179.3,174.5 177.3,175.7 181.4,178.1 183.4,176.9 		"/>
		<polygon points="206.7,192.7 214.2,197 216.2,195.8 208.8,191.5 		"/>
	</g>
	<g>
		
			<linearGradient id="SVGID_70_" gradientUnits="userSpaceOnUse" x1="2960.314" y1="-12907.4531" x2="2910.1594" y2="-12936.6924" gradientTransform="matrix(0.4975 0.8674 0.8674 -0.4975 9890.5283 -8826.5586)">
			<stop  offset="0" style="stop-color:#DC3DAA"/>
			<stop  offset="0.2469" style="stop-color:#A32D7E"/>
			<stop  offset="0.7688" style="stop-color:#2F0D24"/>
			<stop  offset="1" style="stop-color:#000000"/>
		</linearGradient>
		<path class="st168" d="M116.1,133.6l25.4,13.9l25.4,13.9c0.4,0.2,0.6,0.8,0.3,1.2l0,0c-0.2,0.4-0.8,0.6-1.2,0.3l-25-14.6
			L116.1,133.6z"/>
	</g>
	<g>
		
			<linearGradient id="SVGID_71_" gradientUnits="userSpaceOnUse" x1="2951.8193" y1="-12686.667" x2="2901.6648" y2="-12715.9063" gradientTransform="matrix(0.4975 0.8674 0.8674 -0.4975 9890.5283 -8826.5586)">
			<stop  offset="0" style="stop-color:#DC3DAA"/>
			<stop  offset="0.2469" style="stop-color:#A32D7E"/>
			<stop  offset="0.7688" style="stop-color:#2F0D24"/>
			<stop  offset="1" style="stop-color:#000000"/>
		</linearGradient>
		<path class="st169" d="M303.4,16.4l25.4,13.9l25.4,13.9c0.4,0.2,0.6,0.8,0.3,1.2l0,0c-0.2,0.4-0.8,0.6-1.2,0.3l-25-14.6
			L303.4,16.4z"/>
	</g>
</g>
</svg>
