<svg width="24" height="24" viewBox="0 0 24 24" fill="none" xmlns="http://www.w3.org/2000/svg">
<path d="M7.77659 18.6281C7.77659 18.7219 7.66878 18.7969 7.53284 18.7969C7.37816 18.8109 7.27034 18.7359 7.27034 18.6281C7.27034 18.5344 7.37816 18.4594 7.51409 18.4594C7.65472 18.4453 7.77659 18.5203 7.77659 18.6281ZM6.31878 18.4172C6.28597 18.5109 6.37972 18.6187 6.52034 18.6469C6.64222 18.6937 6.78284 18.6469 6.81097 18.5531C6.83909 18.4594 6.75003 18.3516 6.60941 18.3094C6.48753 18.2766 6.35159 18.3234 6.31878 18.4172ZM8.39066 18.3375C8.25472 18.3703 8.16097 18.4594 8.17503 18.5672C8.18909 18.6609 8.31097 18.7219 8.45159 18.6891C8.58753 18.6562 8.68128 18.5672 8.66722 18.4734C8.65316 18.3844 8.52659 18.3234 8.39066 18.3375ZM11.475 0.375C4.97347 0.375 3.05176e-05 5.31094 3.05176e-05 11.8125C3.05176e-05 17.0109 3.27191 21.4594 7.94534 23.025C8.54534 23.1328 8.75628 22.7625 8.75628 22.4578C8.75628 22.1672 8.74222 20.5641 8.74222 19.5797C8.74222 19.5797 5.46097 20.2828 4.77191 18.1828C4.77191 18.1828 4.23753 16.8187 3.46878 16.4672C3.46878 16.4672 2.39534 15.7312 3.54378 15.7453C3.54378 15.7453 4.71097 15.8391 5.35316 16.9547C6.37972 18.7641 8.10003 18.2437 8.77034 17.9344C8.87816 17.1844 9.18284 16.6641 9.52034 16.3547C6.90003 16.0641 4.25628 15.6844 4.25628 11.175C4.25628 9.88594 4.61253 9.23906 5.36253 8.41406C5.24066 8.10938 4.84222 6.85312 5.48441 5.23125C6.46409 4.92656 8.71878 6.49688 8.71878 6.49688C9.65628 6.23438 10.6641 6.09844 11.6625 6.09844C12.661 6.09844 13.6688 6.23438 14.6063 6.49688C14.6063 6.49688 16.861 4.92188 17.8407 5.23125C18.4828 6.85781 18.0844 8.10938 17.9625 8.41406C18.7125 9.24375 19.1719 9.89062 19.1719 11.175C19.1719 15.6984 16.411 16.0594 13.7907 16.3547C14.2219 16.725 14.5875 17.4281 14.5875 18.5297C14.5875 20.1094 14.5735 22.0641 14.5735 22.4484C14.5735 22.7531 14.7891 23.1234 15.3844 23.0156C20.0719 21.4594 23.25 17.0109 23.25 11.8125C23.25 5.31094 17.9766 0.375 11.475 0.375ZM4.55628 16.5422C4.49534 16.5891 4.50941 16.6969 4.58909 16.7859C4.66409 16.8609 4.77191 16.8938 4.83284 16.8328C4.89378 16.7859 4.87972 16.6781 4.80003 16.5891C4.72503 16.5141 4.61722 16.4812 4.55628 16.5422ZM4.05003 16.1625C4.01722 16.2234 4.06409 16.2984 4.15784 16.3453C4.23284 16.3922 4.32659 16.3781 4.35941 16.3125C4.39222 16.2516 4.34534 16.1766 4.25159 16.1297C4.15784 16.1016 4.08284 16.1156 4.05003 16.1625ZM5.56878 17.8312C5.49378 17.8922 5.52191 18.0328 5.62972 18.1219C5.73753 18.2297 5.87347 18.2437 5.93441 18.1688C5.99534 18.1078 5.96722 17.9672 5.87347 17.8781C5.77034 17.7703 5.62972 17.7563 5.56878 17.8312ZM5.03441 17.1422C4.95941 17.1891 4.95941 17.3109 5.03441 17.4188C5.10941 17.5266 5.23597 17.5734 5.29691 17.5266C5.37191 17.4656 5.37191 17.3438 5.29691 17.2359C5.23128 17.1281 5.10941 17.0813 5.03441 17.1422Z" fill="#F8F8F2"/>
</svg>
