<svg width="21" height="22" viewBox="0 0 21 22" fill="none" xmlns="http://www.w3.org/2000/svg">
<path d="M10.5047 5.6094C7.52347 5.6094 5.11878 8.01409 5.11878 10.9953C5.11878 13.9766 7.52347 16.3813 10.5047 16.3813C13.486 16.3813 15.8907 13.9766 15.8907 10.9953C15.8907 8.01409 13.486 5.6094 10.5047 5.6094ZM10.5047 14.4969C8.57816 14.4969 7.00316 12.9266 7.00316 10.9953C7.00316 9.06409 8.57347 7.49377 10.5047 7.49377C12.436 7.49377 14.0063 9.06409 14.0063 10.9953C14.0063 12.9266 12.4313 14.4969 10.5047 14.4969ZM17.3672 5.38909C17.3672 6.08752 16.8047 6.64534 16.111 6.64534C15.4125 6.64534 14.8547 6.08284 14.8547 5.38909C14.8547 4.69534 15.4172 4.13284 16.111 4.13284C16.8047 4.13284 17.3672 4.69534 17.3672 5.38909ZM20.9344 6.66409C20.8547 4.98127 20.4703 3.49065 19.2375 2.26252C18.0094 1.0344 16.5188 0.650024 14.836 0.565649C13.1016 0.467212 7.90316 0.467212 6.16878 0.565649C4.49066 0.645337 3.00004 1.02971 1.76722 2.25784C0.534411 3.48596 0.154724 4.97659 0.0703491 6.6594C-0.0280884 8.39377 -0.0280884 13.5922 0.0703491 15.3266C0.150037 17.0094 0.534411 18.5 1.76722 19.7281C3.00004 20.9563 4.48597 21.3406 6.16878 21.425C7.90316 21.5235 13.1016 21.5235 14.836 21.425C16.5188 21.3453 18.0094 20.961 19.2375 19.7281C20.4657 18.5 20.85 17.0094 20.9344 15.3266C21.0328 13.5922 21.0328 8.39846 20.9344 6.66409ZM18.6938 17.1875C18.3282 18.1063 17.6203 18.8141 16.6969 19.1844C15.3141 19.7328 12.0328 19.6063 10.5047 19.6063C8.97659 19.6063 5.69066 19.7281 4.31253 19.1844C3.39378 18.8188 2.68597 18.111 2.31566 17.1875C1.76722 15.8047 1.89379 12.5235 1.89379 10.9953C1.89379 9.46721 1.77191 6.18127 2.31566 4.80315C2.68129 3.8844 3.3891 3.17659 4.31253 2.80627C5.69535 2.25784 8.97659 2.3844 10.5047 2.3844C12.0328 2.3844 15.3188 2.26252 16.6969 2.80627C17.6157 3.1719 18.3235 3.87971 18.6938 4.80315C19.2422 6.18596 19.1157 9.46721 19.1157 10.9953C19.1157 12.5235 19.2422 15.8094 18.6938 17.1875Z" fill="#F8F8F2"/>
</svg>
